<?xml version="1.0" encoding="UTF-8"?><svg id="Component_186_42" xmlns="http://www.w3.org/2000/svg" viewBox="0 0 426.09 50"><g id="Group_1"><path id="Path_1" d="M327.14,27.9c0-.94.06-1.87.19-2.8.11-.61.13-1.24.22-1.86.37-1.97.85-3.91,1.45-5.82.09-.32.17-.64.24-.97.02-.17-.08-.33-.24-.4-.2-.07-.4-.11-.59-.18-.2-.06-.39-.14-.57-.24-.1-.07-.17-.17-.18-.29.01-.12.08-.22.19-.28.4-.11.81-.19,1.21-.26.12-.02.25-.03.37-.03.34,0,.65-.2.77-.53.16-.38.35-.76.5-1.14,1.04-2.45,2.28-4.82,3.69-7.09.77-1.29,1.71-2.47,2.78-3.52.6-.58,1.25-1.1,1.94-1.56.59-.39,1.24-.68,1.92-.85.44-.11.91-.12,1.35-.01.86.18,1.65.6,2.29,1.2.96.87,1.68,1.98,2.08,3.21.12.44.2.9.22,1.35.17,2.44-.64,4.85-2.25,6.7-.68.79-1.52,1.43-2.48,1.85-1.24.58-2.55,1-3.9,1.24-1.79.36-3.61.53-5.43.5-1.29-.03-1.37-.1-1.73,1.36-.53,2.11-.77,4.28-.69,6.45.02.84.19,1.66.5,2.44.12.31.28.6.47.87.65.91,1.82,1.28,2.88.9.35-.12.69-.3.99-.52,2.1-1.44,3.9-3.28,5.29-5.41.56-.88,1.11-1.76,1.65-2.65.22-.4.51-.76.84-1.08.25-.22.52-.41.81-.57.38-.21.85-.13,1.14.19.33.33.54.75.59,1.22.22,1.5-.06,3.03-.82,4.35-1.07,1.77-.84,1.36-.94,3.16-.05.79-.12,1.58-.17,2.37,0,.25,0,.5.03.75,0,.12.24.31.36.29.4-.09.81-.17,1.21-.28.43-.14.89-.19,1.35-.14.11.03.22.09.3.17.09.09.02.33-.12.44-.23.18-.47.33-.73.46-.41.19-.85.34-1.27.5-.31.12-.62.24-.92.37-.27.12-.46.38-.48.68-.07.66-.16,1.33-.22,1.99-.15,1.45-.41,2.89-.78,4.3-.13.52-.3,1.04-.47,1.55-.89,2.7-3.01,4.81-5.71,5.69-1.22.43-2.51.59-3.79.46-.62-.06-1.22-.25-1.76-.56-.55-.31-1-.77-1.28-1.33-.17-.33-.27-.7-.28-1.08-.01-.96.19-1.92.6-2.79.28-.6.63-1.17,1.04-1.7,1.12-1.5,2.49-2.81,4.03-3.88.96-.66,1.96-1.25,2.99-1.79.99-.53,1.99-1.03,2.97-1.58,1.09-.61.96-.51,1.29-1.69.18-.64.32-1.3.45-1.95.02-.2.03-.41,0-.62,0-.09-.22-.2-.29-.14-.1.07-.2.14-.28.23-.23.3-.43.62-.65.92-1.73,2.36-4.07,4.2-6.78,5.32-1.35.56-2.81.77-4.26.61-.8-.06-1.53-.49-1.98-1.15-.41-.63-.71-1.33-.87-2.06-.23-1.09-.32-2.2-.28-3.31M342.08,6.01c.04-.46-.06-.92-.28-1.32-.18-.34-.56-.53-.94-.45-.85.19-1.65.56-2.34,1.09-1.32.95-2.47,2.11-3.4,3.44-.95,1.42-1.73,2.94-2.34,4.53-.05.2-.08.4-.08.61.02.13.12.23.24.24.12,0,.24,0,.36-.02,2.36-.5,4.55-1.6,6.35-3.21.92-.79,1.61-1.82,2-2.96.25-.62.39-1.27.42-1.94M334.6,40.68c.05.32.07.61.13.89.14.58.63,1.01,1.23,1.07.54.08,1.09-.07,1.51-.42.52-.42.95-.93,1.28-1.51.43-.71.79-1.46,1.06-2.25.4-1.22.79-2.45,1.15-3.68.09-.4.15-.81.18-1.23.02-.15-.2-.33-.33-.28-.04,0-.08.02-.12.03-1.93.97-3.59,2.41-4.84,4.18-.42.57-.74,1.21-.94,1.89-.13.44-.22.88-.31,1.3"/></g><g id="Group_2"><path id="Path_2" d="M307.27,14.31c0-.84-.01-1.67,0-2.5.02-.55.24-1.07.63-1.46.58-.64,1.52-.8,2.28-.38.7.38,1.25.99,1.56,1.73.07.15.1.32.11.48.07.66,0,1.34-.17,1.98-.49,1.64-1.11,3.23-1.87,4.76-.18.38-.37.75-.55,1.12-.05.12-.08.23-.11.36-.02.17.08.33.24.38.74.09,1.48.18,2.22.25.87.07,1.72.24,2.55.51.39.14.77.31,1.12.52.18.11.33.26.45.43.2.28.14.66-.14.86-.04.03-.08.05-.13.07-.26.13-.55.2-.84.2-.45-.03-.91-.04-1.36-.1-1.11-.13-2.23-.18-3.35-.13-.38.01-.74.16-1.01.43-.19.17-.3.41-.31.66-.02.33.04.67.18.97.22.45.43.9.66,1.34.3.55.62,1.08.94,1.62.79,1.43,1.27,3,1.42,4.62.02.21.02.42,0,.62-.12,2.3-.87,4.53-2.15,6.44-.95,1.42-2.16,2.65-3.55,3.64-.89.62-1.88,1.07-2.93,1.33-1.06.26-2.17.14-3.14-.34-1.05-.47-1.78-1.45-1.95-2.59-.2-1.07-.14-2.17.18-3.22.33-1.08.75-2.12,1.25-3.13.6-1.19,1.23-2.36,1.83-3.55.85-1.67,1.69-3.34,2.52-5.02.15-.3.27-.61.42-.91.24-.45.26-.98.04-1.44-.18-.42-.27-.87-.41-1.31-.09-.32-.13-.65-.12-.99,0-.69.46-1.3,1.12-1.48.31-.1.65-.14.97-.21.3-.04.54-.26.62-.55.2-.59.36-1.2.49-1.81.21-1.11.3-2.23.28-3.36-.01-.29,0-.58,0-.88h.01ZM306.28,36.68c.02-.87-.04-1.74-.17-2.59-.15-.82-.22-1.65-.33-2.48-.1-.78-.2-1.57-.32-2.35-.04-.16-.11-.31-.2-.45-.05-.09-.27-.09-.33-.01-.11.13-.2.26-.29.4-.58,1.06-1.18,2.11-1.73,3.18-.64,1.22-1.17,2.49-1.59,3.8-.31.95-.48,1.94-.52,2.94-.06.71.04,1.42.28,2.09.23.71.96,1.12,1.68.97.66-.09,1.28-.38,1.77-.83.71-.65,1.22-1.49,1.48-2.42.21-.73.3-1.49.27-2.25"/></g><g id="Group_3"><path id="Path_3" d="M385.34,28.25c-.59,0-1.22,0-1.84,0-.12.02-.24.05-.35.1-.11.07-.16.19-.15.32.05.16.11.31.19.45.56.78,1.37,1.35,2.3,1.62.59.2,1.2.31,1.83.33,1.2-.01,2.4-.14,3.57-.38.45-.07.9-.12,1.36-.15.2-.02.44-.04.53.2.05.21,0,.42-.15.58-.35.52-.79.97-1.31,1.33-.92.64-1.94,1.13-3.02,1.44-1.23.37-2.53.48-3.81.31-1.61-.15-3.02-1.12-3.75-2.56-.32-.59-.53-1.23-.61-1.89-.06-.54-.14-1.07-.23-1.61-.03-.17-.16-.3-.33-.34-.2-.05-.41-.07-.61-.1-.53-.06-1.06-.2-1.55-.41-.29-.1-.47-.37-.45-.67.05-.28.26-.4.5-.5.42-.17.88-.26,1.33-.25,1.55,0,1.34.06,1.81-1.29.93-2.7,2.72-5.02,5.08-6.61,1.44-.98,3.1-1.61,4.84-1.83.95-.16,1.92-.06,2.81.28,1.09.37,1.92,1.25,2.23,2.35.16.65.16,1.33.02,1.98-.36,1.94-1.41,3.7-2.95,4.94-1.62,1.39-3.66,2.2-5.79,2.3-.5.03-.99.05-1.52.07M388.5,19.82c-.63-.01-1.24.17-1.76.51-1.84,1.11-3.22,2.82-3.92,4.85-.04.16-.06.33-.05.49.02.17.15.3.32.32.12,0,.25,0,.37-.01,1.91-.43,3.66-1.42,5.01-2.84.23-.24.43-.51.6-.79.23-.35.39-.74.47-1.15.16-.58-.18-1.18-.76-1.34-.09-.03-.19-.04-.29-.04"/></g><g id="Group_4"><path id="Path_4" d="M411.23,28.52c-.4-.15-.72-.25-1.02-.38-.27-.11-.53-.24-.78-.39-.13-.1-.24-.22-.33-.36-.11-.19-.05-.43.12-.55.29-.17.61-.26.95-.27.33-.01.66-.03.99-.06.17-.02.31-.13.38-.29.08-.15.14-.3.2-.45.16-.43.31-.86.48-1.29.87-2.26,2.23-4.31,3.99-5.98,1.29-1.24,2.89-2.13,4.62-2.58,1.01-.29,2.08-.23,3.05.17,1.2.46,2.03,1.57,2.14,2.85.23,1.63-.19,3.29-1.17,4.61-.21.31-.45.6-.7.88-1.9,2.12-4.44,3.57-7.23,4.13-.78.11-1.56.18-2.35.2-.33.03-.66.05-.99.09-.17.05-.27.23-.22.4.01.04.03.07.05.1.16.19.34.36.53.52.44.32.94.54,1.48.63.61.13,1.23.2,1.85.19,1.7-.04,3.38-.37,4.97-.99.46-.19.93-.36,1.39-.53.2-.07.4.12.38.36,0,.17-.04.33-.08.49-.23.72-.65,1.36-1.22,1.86-1.11,1.01-2.47,1.71-3.94,2.03-.2.05-.41.06-.61.1-1.6.34-3.27.03-4.65-.85-1.04-.57-1.79-1.54-2.1-2.68-.07-.28-.12-.57-.15-.86-.03-.33-.02-.66-.04-1.1M413.94,26.35c.22-.01.43-.04.65-.07,1.54-.33,2.99-.98,4.25-1.92.46-.35.87-.76,1.22-1.23.25-.34.42-.72.51-1.12.11-.46-.13-.93-.56-1.14-.22-.11-.46-.18-.7-.2-.33-.02-.66.01-.98.08-.93.22-1.77.73-2.4,1.45-.95,1.04-1.74,2.22-2.34,3.5-.05.11-.09.23-.09.36,0,.08.05.16.12.2.1.04.21.07.32.09"/></g><g id="Group_5"><path id="Path_5" d="M287.62,30c-.02-1.38.26-2.75.82-4.01.96-2.41,2.57-4.51,4.65-6.06.83-.63,1.74-1.14,2.71-1.51,1.13-.43,2.35-.57,3.54-.39.16.03.32.08.47.15.21.08.31.31.23.52-.03.07-.08.14-.14.18-.2.15-.41.28-.64.38-.38.15-.78.27-1.18.39-.72.19-1.42.47-2.07.83-1.43.87-2.56,2.16-3.22,3.7-.13.31-.22.63-.28.96-.1.5,0,1.01.27,1.44.25.45.71.73,1.22.75.88.04,1.74-.3,2.36-.93.58-.55.99-1.25,1.18-2.02.11-.4.18-.82.3-1.21.2-.73.62-1.37,1.21-1.84.33-.26.77-.34,1.18-.22.53.14.99.48,1.27.94.22.35.37.75.42,1.16.16,1.24.06,2.51-.29,3.71-.72,2.6-2.37,4.83-4.65,6.28-.98.63-2.07,1.06-3.22,1.25-.45.07-.9.16-1.35.21-.66.05-1.33-.03-1.96-.22-1.58-.42-2.71-1.8-2.82-3.43-.02-.33-.02-.67,0-1"/></g><g id="Group_6"><path id="Path_6" d="M374.42,31.34c.75.03,1.49-.03,2.22-.18.28-.08.58-.08.86,0,.12.04.27.3.23.41-.06.16-.13.31-.21.45-.41.63-.94,1.17-1.56,1.59-1.72,1.22-3.86,1.68-5.92,1.28-1.03-.18-1.99-.65-2.77-1.34-.77-.65-1.31-1.53-1.54-2.51-.17-.6-.25-1.23-.24-1.85.01-.25,0-.5-.01-.75,0-.21-.12-.41-.32-.49-.27-.1-.55-.18-.82-.28-.31-.12-.61-.26-.9-.41-.1-.07-.2-.15-.28-.24-.14-.19-.09-.44.09-.58.02-.02.05-.03.07-.04.4-.12.81-.18,1.22-.17.29,0,.58,0,.87-.02.17-.02.32-.12.39-.28.08-.19.15-.39.2-.59.48-1.77,1.33-3.43,2.48-4.87.39-.49.81-.94,1.27-1.37,1.43-1.35,3.28-2.16,5.24-2.32.82-.1,1.66-.1,2.48.01.24.04.48.11.72.19,1.4.51,2.15,2.02,1.71,3.44-.2.77-.53,1.5-.97,2.16-.12.17-.24.34-.37.5-1.82,2.23-4.3,3.84-7.09,4.59-.52.13-1.05.23-1.59.29-.37,0-.74.1-1.07.29-.06.05-.1.13-.09.21.03.16.08.32.15.47.23.4.53.75.89,1.03.96.8,2.15,1.28,3.4,1.38.41.03.83,0,1.24,0M374.66,21.1c.1-.77-.45-1.47-1.22-1.56-.17-.02-.35-.01-.52.03-.37.07-.72.2-1.04.39-1.62.97-2.84,2.49-3.46,4.27-.2.5-.31,1.04-.3,1.59,0,.26.2.47.46.49.25,0,.5-.02.74-.07,1.58-.41,3-1.27,4.09-2.47.54-.58.93-1.29,1.14-2.06.06-.24.1-.49.12-.62"/></g><g id="Group_7"><path id="Path_7" d="M363.65,22.46c-.26-.05-.59-.1-.91-.17-.36-.09-.72-.21-1.08-.29-1.58-.42-3.25.26-4.09,1.66-.3.45-.53.94-.7,1.46-.25.79-.48,1.6-.73,2.39-.23.76-.46,1.52-.72,2.26-.33.95-.81,1.83-1.42,2.63-.92,1.25-2.22,2.16-3.71,2.6-1,.28-2.06.31-3.08.11-.41-.06-.8-.25-1.11-.53-.15-.15-.2-.38-.11-.57.08-.15.17-.28.28-.41.29-.3.58-.6.89-.88.65-.59,1.2-1.27,1.65-2.03,1.33-2.17,2.34-4.52,2.99-6.98.29-1.13.51-2.28.76-3.42.1-.49.18-.98.29-1.47.09-.45.29-.87.58-1.23.54-.7,1.28-1.21,2.12-1.48.4-.12.82-.14,1.23-.07.34.06.58.36.58.71,0,.17-.04.33-.09.49-.16.47-.34.94-.51,1.41-.25.66-.5,1.33-.73,1.99-.13.35-.16.74-.1,1.11.01.08.06.19.12.2.11.04.24.04.35,0,.17-.12.32-.26.45-.42,1.31-1.46,2.91-2.63,4.7-3.43.74-.39,1.55-.61,2.38-.66.37,0,.74.03,1.1.07.33.05.64.19.89.42.27.21.44.52.47.85.12,1.22-.34,2.44-1.26,3.26-.24.24-.56.37-.9.39-.17,0-.33.02-.57.03"/></g><g id="Group_8"><path id="Path_8" d="M399.12,34.97c-.84.04-1.66-.16-2.39-.58-.94-.5-1.56-1.44-1.66-2.5-.17-1.24-.06-2.51.34-3.7.75-2.3,1.79-4.5,3.1-6.53.63-.98,1.37-1.89,2.21-2.7.36-.34.75-.66,1.14-.97,1.37-1.05,3.07-1.55,4.79-1.4.79.04,1.56.27,2.24.67.89.5,1.44,1.45,1.45,2.47.02.21.02.42,0,.63-.07.87-.22,1.74-.45,2.58-.23.76-.66,1.45-1.23,2-.27.27-.58.48-.93.62-.15.06-.32.09-.48.1-.48.03-.89-.32-.94-.8-.04-.54,0-1.09.11-1.62.11-.62.15-1.25.12-1.87,0-.38-.09-.75-.26-1.08-.29-.67-.94-1.11-1.67-1.13-.76-.02-1.49.24-2.06.74-.52.42-.98.9-1.38,1.44-.63.83-1.16,1.73-1.58,2.69-.27.56-.42,1.18-.43,1.81,0,1.14.53,2.23,1.43,2.93.42.35.94.55,1.49.57.62.04,1.25,0,1.86-.13.56-.13,1.14-.23,1.71-.33.33-.06.67.02.94.23.17.12.29.31.32.52.08.46-.02.93-.27,1.32-.16.24-.33.48-.52.7-1.52,1.74-3.59,2.89-5.87,3.27-.37.04-.74.07-1.12.07"/></g><g id="Group_28"><path id="Path_28" d="M162.1,35.85c-.83-.05-1.66-.09-2.48-.15-.66-.07-1.3-.26-1.89-.57-.95-.46-1.67-1.3-1.97-2.31-.28-.83-.44-1.7-.48-2.57-.04-1-.05-2.01,0-3,.06-1.17.32-2.32.78-3.4.32-.82.84-1.54,1.51-2.11.17-.12.35-.22.53-.31.17-.04.34.05.41.21.04.2.07.41.09.61.08.87.24,1.73.49,2.57.59,2.2,2.47,3.8,4.74,4.04.25.04.49.08.74.11,1.71.23,3.44-.32,4.71-1.49,1.17-1.08,2-2.48,2.38-4.03.18-.69.27-1.39.29-2.1,0-1.42-.12-2.84-.35-4.24-.13-1.03-.3-2.06-.46-3.09-.04-.2-.1-.4-.18-.59-.09-.15-.27-.2-.42-.13-.14.09-.27.18-.4.29-.29.24-.56.49-.85.73-1.14.97-2.4,1.8-3.74,2.45-.64.3-1.3.54-1.98.72-.73.2-1.5.15-2.19-.15-.81-.32-1.58-.74-2.29-1.24-.09-.08-.18-.17-.25-.28-.09-.14-.07-.33.05-.45.17-.12.35-.22.54-.3.59-.19,1.19-.36,1.79-.53,1.44-.4,2.85-.9,4.21-1.51,1.47-.68,2.86-1.51,4.16-2.47.13-.1.26-.21.38-.32.28-.2.4-.55.32-.89-.07-.33-.13-.65-.19-.98-.06-.37-.12-.74-.17-1.11-.04-.33-.05-.67-.1-1-.17-1.24-.13-2.5.1-3.74.16-1.34,1.25-2.38,2.6-2.46,1.61-.28,3.22.54,3.94,2,.33.58.53,1.23.58,1.9.14,1.17-.1,2.35-.69,3.37-.34.57-.7,1.13-1.06,1.69-.11.17-.25.33-.37.5-.18.24-.22.55-.12.83.09.32.2.63.32.95.45,1.21.97,2.39,1.54,3.55.5,1.01,1,2.01,1.47,3.04.53,1.13.93,2.32,1.19,3.55.34,1.56.16,3.19-.52,4.64-.38.83-.87,1.62-1.45,2.33-2.65,3.4-6.38,5.8-10.58,6.81-1.53.38-3.1.6-4.67.65M172.67,4.03c.02.89.18,1.78.47,2.63.07.15.15.29.25.42.11.12.3.16.45.09.07-.04.14-.09.2-.15.58-.71.93-1.58.98-2.5.05-.72-.36-1.4-1.03-1.69-.43-.2-.94-.02-1.14.41-.02.04-.04.09-.05.13-.06.22-.1.43-.13.66"/></g><g id="Group_29"><path id="Path_29" d="M37.57,4.18c-.09,1.59-.33,3.16-.72,4.7-.3,1.38-.63,2.76-1.02,4.12-.09.32-.16.65-.23.97-.03.12-.05.25-.04.37.03.52.41.85.95.61.22-.11.43-.25.61-.43.67-.63,1.33-1.25,1.97-1.91,2.42-2.51,4.82-5.06,7.36-7.47.72-.69,1.46-1.36,2.22-2.01.47-.41.98-.76,1.49-1.13.41-.28.86-.5,1.34-.65.59-.11,1.18.25,1.35.82.14.66.07,1.34-.21,1.95-.33.67-.77,1.29-1.29,1.83-.82.88-1.71,1.7-2.64,2.46-3.09,2.48-5.76,5.44-7.91,8.77-1.21,1.85-2.2,3.83-2.96,5.91-.48,1.42-.83,2.89-1.02,4.38-.06.42,0,.84.14,1.23.13.46.61.74,1.08.61.28-.06.55-.17.79-.33.5-.36.98-.77,1.46-1.17.32-.27.61-.56.93-.83.1-.07.22-.12.33-.15.17-.01.33.08.39.24.08.41.04.84-.13,1.23-.19.46-.38.93-.6,1.37-.92,1.83-1.9,3.61-2.93,5.38-.57.92-1.21,1.8-1.92,2.61-.65.76-1.44,1.39-2.33,1.85-.47.26-.98.44-1.51.54-1.01.24-2.05-.24-2.53-1.17-.37-.7-.57-1.49-.58-2.28-.02-1,.11-2,.38-2.97.5-1.9,1.25-3.72,2.23-5.42.88-1.61,1.71-3.24,2.47-4.91.34-.76.64-1.54.92-2.32.14-.44.26-.88.35-1.33.11-.49.04-1.01-.18-1.46-.07-.15-.18-.28-.31-.38-.2-.16-.47-.2-.7-.09-.31.14-.56.37-.73.66-.26.43-.46.89-.59,1.37-.69,2.58-1.8,5.03-3.29,7.25-.72,1.12-1.48,2.21-2.28,3.28-1.12,1.5-2.46,2.83-3.97,3.94-.52.41-1.09.76-1.7,1.03-.56.28-1.18.41-1.8.39-.29-.02-.57-.15-.78-.35-.16-.14-.23-.36-.2-.57.02-.12.05-.24.1-.36.25-.62.6-1.19,1.06-1.68.46-.53.92-1.07,1.39-1.6,2.93-3.36,5.54-6.99,7.77-10.85,1.32-2.27,2.34-4.71,3.03-7.24.55-2.01.94-4.06,1.29-6.11.18-1.07.33-2.14.52-3.21.14-.82.43-1.61.87-2.33.18-.33.47-.59.82-.74.15-.07.33-.06.48.02.18.1.34.23.47.39.26.33.42.72.45,1.14.04.67.09,1.33.13,2"/></g><g id="Group_30"><path id="Path_30" d="M201.42,24.3c-.01.75-.16,1.5-.44,2.2-.63,1.68-1.55,3.24-2.73,4.59-.49.57-1,1.12-1.54,1.64-1.03,1.04-2.28,1.83-3.66,2.3-.75.24-1.55.3-2.33.18-.49-.09-.94-.33-1.3-.68-.43-.4-.77-.88-1.01-1.41-.16-.34-.3-.69-.46-1.02-.03-.06-.13-.1-.2-.14-.1-.05-.22.02-.29.16s-.16.29-.22.45c-.13.31-.25.62-.37.93-1.42,3.52-3.13,6.91-5.12,10.14-.52.85-1.08,1.68-1.66,2.5-.35.46-.73.91-1.13,1.33-.29.31-.64.54-1.03.69-.32.14-.69,0-.84-.32-.08-.14-.13-.3-.15-.47-.04-.46-.02-.92.08-1.37.32-1.38.74-2.74,1.25-4.06,1.71-4.66,3.73-9.2,6.03-13.59.39-.73.73-1.5,1.09-2.25.15-.3.23-.63.25-.96.03-.45-.31-.84-.76-.87-.03,0-.06,0-.09,0-.17,0-.33.01-.49.05-.68.18-1.34.43-1.97.74-.45.2-.92.38-1.38.55-.17.04-.35-.07-.39-.25,0-.03,0-.07,0-.11.05-.24.13-.48.24-.7.26-.43.55-.83.88-1.21,1.99-2.14,4.38-3.86,7.04-5.06.34-.17.71-.26,1.08-.27.34-.01.66.2.78.52.3.69.39,1.46.28,2.21-.12.49-.17.99-.16,1.49,0,.1.2.21.28.16.11-.06.21-.12.31-.19.29-.23.57-.48.87-.71.88-.7,1.83-1.3,2.85-1.77.76-.34,1.59-.5,2.42-.45.71.02,1.4.28,1.95.73.76.6,1.35,1.37,1.75,2.25.26.66.37,1.37.31,2.08M190.62,29.52c0,.51.14,1.01.41,1.44.31.52.96.73,1.51.5.46-.19.89-.46,1.25-.8.99-.89,1.8-1.97,2.36-3.18.23-.53.4-1.09.51-1.67.1-.54.05-1.09-.15-1.59-.21-.6-.86-.92-1.46-.71-.02,0-.04.01-.06.02-.35.13-.68.31-.97.54-1.49,1.09-2.59,2.62-3.16,4.37-.1.36-.15.73-.23,1.09"/></g><g id="Group_31"><path id="Path_31" d="M261.17,35.41c-.35.02-.68.01-1.01.05-.37.04-.73.12-1.1.2-.26.04-.46.24-.5.5-.08.32-.14.65-.18.98-.17,1.74-.44,3.47-.8,5.18-.15.82-.39,1.62-.7,2.39-1.02,2.51-3.17,4.38-5.8,5.04-.8.22-1.64.29-2.46.21-.97-.04-1.88-.45-2.55-1.15-.5-.51-.78-1.2-.77-1.92,0-1.3.36-2.58,1.04-3.68,1.22-2.04,2.87-3.8,4.82-5.16,1.13-.78,2.33-1.44,3.59-1.99.45-.2.91-.42,1.38-.57.57-.17,1-.63,1.13-1.22.12-.44.29-.87.43-1.3.06-.19.01-.45-.08-.46-.12,0-.24.01-.35.06-.14.08-.28.17-.41.28-.27.19-.55.38-.82.56-1.13.77-2.35,1.41-3.63,1.9-.42.16-.87.27-1.3.42-.76.22-1.55.29-2.34.2-.2-.02-.41-.06-.6-.13-.59-.15-1.01-.67-1.03-1.27-.07-.71-.05-1.42.07-2.12.4-2.05,1.06-4.04,1.97-5.92.56-1.21,1.21-2.38,1.97-3.48.63-.93,1.35-1.8,2.17-2.57.3-.28.62-.56.94-.81,1.44-1.16,3.27-1.71,5.11-1.55.83.05,1.64.3,2.35.74.8.48,1.31,1.32,1.38,2.26,0,.08.01.17.01.25.01,1.67-.37,3.33-1.1,4.83-.35.71-.85,1.34-1.46,1.85-.28.25-.63.41-1,.48-.75.12-1.31-.25-1.22-1.12.03-.21.07-.41.13-.61.15-.61.3-1.21.46-1.82.12-.49.17-.99.14-1.49-.01-.68-.39-1.31-.98-1.64-.57-.36-1.26-.47-1.91-.29-1.09.29-2.05.95-2.71,1.87-.25.33-.47.69-.65,1.07-.52,1.07-.56,2.3-.12,3.4.25.72.84,1.28,1.58,1.48.43.14.89.22,1.34.23.75.02,1.49-.02,2.23-.12.37-.06.74-.09,1.11-.09.39.01.69.34.68.72,0,0,0,.02,0,.03,0,.21-.04.41-.09.61-.26.97-.4,1.96-.56,2.94-.03.29-.05.58-.05.87.03.17.14.3.3.36.28.05.57.1.85.15.33.05.65.09.98.15.06.01.09.12.16.21M250.52,44.03c.03.21.05.46.1.7.11.54.64.89,1.18.77.02,0,.03,0,.05-.01.32-.07.63-.19.91-.38.63-.4,1.15-.96,1.52-1.61.23-.4.43-.81.6-1.23.66-1.61,1.17-3.29,1.51-5,.02-.12.03-.25.03-.37.01-.15-.19-.34-.33-.3-.2.05-.39.12-.58.19-.97.49-1.83,1.16-2.53,1.98-1.08,1.16-1.86,2.57-2.26,4.1-.09.38-.15.76-.2,1.15"/></g><g id="Group_32"><path id="Path_32" d="M128.57,31.66c.07-.61.14-1.31.21-2.02,0-.07-.03-.2-.08-.22-.11-.04-.23-.04-.35-.01-.11.06-.21.13-.3.22-.3.23-.59.46-.89.67-.18.11-.38.16-.59.14-.21-.02-.39-.17-.43-.38-.06-.29-.01-.59.14-.84.32-.49.66-.96,1.03-1.41.78-.92,1.58-1.83,2.39-2.72.46-.48.81-1.06,1.03-1.69.2-.59.43-1.17.64-1.76,1.02-2.78,2.34-5.44,3.94-7.92,1.2-1.85,2.66-3.52,4.34-4.95.69-.6,1.45-1.11,2.28-1.51.83-.4,1.75-.56,2.66-.47.88.06,1.7.46,2.29,1.11.45.5.71,1.14.75,1.81.04.5,0,1-.13,1.49-.25,1.01-.64,1.98-1.17,2.88-1.24,2.17-2.79,4.15-4.61,5.86-2.32,2.14-4.83,4.06-7.5,5.76-.42.27-.83.54-1.24.83-.27.2-.46.49-.52.82-.22.68-.22,1.41-.01,2.09.17.62.69,1.08,1.32,1.16.86.11,1.74.07,2.59-.14,1.38-.3,2.72-.72,4.03-1.26.66-.26,1.32-.5,1.97-.75.31-.12.64-.17.97-.13.15.02.26.15.24.3,0,.02,0,.04-.01.06-.11.23-.23.44-.37.65-1.24,1.67-2.78,3.1-4.55,4.21-1.42.87-3,1.44-4.64,1.69-.69.13-1.4.2-2.1.22-.5-.01-.99-.09-1.46-.25-.99-.29-1.7-1.16-1.78-2.19-.06-.41-.05-.83-.07-1.35M142.58,12.41v-.37c-.05-.34-.35-.59-.7-.57-.41.07-.8.22-1.15.44-.67.41-1.29.91-1.84,1.47-2.11,2.13-3.81,4.63-5.01,7.38-.07.15-.13.31-.18.46-.03.08-.03.16-.02.25,0,.08.04.16.09.22.06.05.14.06.22.04.15-.07.29-.15.42-.26.53-.47,1.06-.94,1.57-1.42,1.24-1.16,2.49-2.32,3.71-3.5.72-.69,1.37-1.45,1.94-2.27.28-.41.53-.84.75-1.29.08-.19.15-.39.19-.59"/></g><g id="Group_33"><path id="Path_33" d="M106.42,31.8c0-1.01.15-2.02.44-2.99.47-1.56,1.13-3.05,1.97-4.44.98-1.6,2.25-3.01,3.74-4.14,1.32-1.02,2.89-1.66,4.55-1.85,1.28-.18,2.59.08,3.7.76.35.22.69.46,1.06.66.26.15.58.14.83-.04.34-.24.67-.49,1-.74.4-.3.87-.5,1.36-.58.16-.02.33,0,.49.03.25.06.43.27.45.53.02.37-.04.75-.17,1.1-.27.75-.61,1.46-1.02,2.14-.57.92-1.17,1.82-1.75,2.73-.36.56-.74,1.11-1.1,1.67-.23.35-.41.73-.53,1.13-.17.43.04.91.47,1.08.06.02.12.04.18.05.37.06.74.07,1.11.12.12.02.24.06.34.13.06.05.11.12.13.2.01.04.01.08,0,.12-.01.08-.04.16-.07.24-.78,2.03-2.11,3.81-3.83,5.14-.53.41-1.11.73-1.74.95-.95.41-2.05-.03-2.46-.98-.07-.17-.12-.35-.14-.54-.07-.37-.07-.75-.13-1.12-.03-.16-.08-.32-.15-.47-.05-.06-.12-.09-.2-.09-.19.07-.37.17-.53.29-.69.54-1.42,1.02-2.18,1.45-.47.26-.96.49-1.47.67-.83.3-1.74.26-2.55-.1-.99-.39-1.68-1.32-1.76-2.38-.03-.29-.04-.58-.05-.72M114.41,29.87c.06,0,.31-.02.55-.06.21-.03.39-.17.47-.37.08-.15.14-.3.19-.46.26-.88.65-1.72,1.15-2.49.46-.74.96-1.46,1.46-2.18.28-.41.6-.8.86-1.22.19-.32.36-.66.49-1,.11-.28.03-.6-.18-.81-.11-.13-.24-.23-.39-.3-.42-.19-.88-.25-1.33-.15-.61.13-1.18.38-1.7.72-1.7,1.08-2.96,2.73-3.55,4.66-.14.44-.24.89-.28,1.34-.23,1.02.4,2.03,1.42,2.26.18.04.36.06.54.04h.31"/></g><g id="Group_34"><path id="Path_34" d="M246.76,23.22c-.04,1.33-.23,2.66-.56,3.96-.41,1.7-.98,3.36-1.73,4.94-.34.72-.74,1.4-1.21,2.03-.41.57-.93,1.07-1.52,1.46-.46.3-1,.42-1.54.34-.42-.06-.76-.38-.86-.79-.13-.7-.1-1.42.11-2.1.22-.76.5-1.5.79-2.23.37-.93.79-1.84,1.16-2.76.28-.69.52-1.4.77-2.11.17-.52.22-1.06.16-1.61-.06-.51-.48-.91-.99-.95-.54-.06-1.09.1-1.51.43-.23.18-.44.38-.64.59-.81.84-1.48,1.8-1.99,2.85-.43.86-.8,1.74-1.22,2.6-.42.86-.84,1.72-1.31,2.55-.52.91-1.21,1.7-2.02,2.35-.6.51-1.32.88-2.08,1.07-.63.16-1.28-.2-1.47-.82-.11-.32-.14-.66-.09-.99.16-.82.41-1.62.75-2.38.75-1.67,1.61-3.29,2.58-4.84.46-.74.93-1.48,1.4-2.22.34-.53.6-1.1.78-1.7.07-.28.11-.57.12-.86-.02-.3-.27-.54-.58-.54-.41.04-.82.15-1.19.31-.88.36-1.74.77-2.57,1.25-.33.18-.65.36-.99.52-.08.02-.16,0-.22-.04-.05-.06-.08-.14-.07-.22.03-.12.07-.24.14-.35.17-.28.34-.57.53-.84,1.04-1.41,2.34-2.6,3.84-3.51.53-.33,1.11-.57,1.72-.7.72-.17,1.45.23,1.69.93.17.43.26.88.27,1.34,0,.38,0,.75.03,1.12,0,.06.09.14.16.16.08.01.15-.02.21-.07.16-.19.3-.4.44-.6.88-1.22,2.09-2.17,3.49-2.71.58-.23,1.2-.34,1.82-.31,1.15,0,2.2.64,2.73,1.66.33.58.53,1.23.58,1.9.05.62.07,1.25.1,1.87"/></g><g id="Group_35"><path id="Path_35" d="M74.33,21.98c.02,1.07-.12,2.14-.43,3.17-.76,2.47-1.82,4.84-3.15,7.05-.44.76-.98,1.45-1.6,2.07-.38.38-.82.7-1.29.96-.33.17-.71.25-1.08.22-.76-.05-1.34-.71-1.29-1.47,0-.06.01-.13.03-.19.11-.57.3-1.13.57-1.65.36-.65.72-1.32,1.11-1.95.57-.92,1.18-1.81,1.77-2.72.42-.63.76-1.3,1.02-2,.15-.43.21-.9.17-1.35-.03-.51-.3-.97-.72-1.26-.62-.45-1.41-.57-2.13-.33-.59.19-1.13.53-1.57.98-.43.45-.82.95-1.14,1.49-.6.95-1.11,1.95-1.54,2.99-.27.65-.51,1.32-.78,1.98-.23.58-.44,1.17-.72,1.73-.3.6-.63,1.17-1,1.72-.26.37-.56.72-.89,1.03-.56.57-1.35.86-2.15.78-.47,0-.89-.28-1.07-.72-.23-.5-.27-1.06-.13-1.59.16-.73.43-1.44.81-2.09.44-.71.87-1.42,1.36-2.09.71-.98,1.47-1.92,2.19-2.88.33-.43.64-.87.93-1.33.21-.31.35-.67.4-1.04.02-.12.03-.25.03-.37.05-.71-.48-1.32-1.19-1.37-.12,0-.25,0-.37.03-.83.09-1.62.41-2.28.91-.23.18-.46.36-.69.53-.13.09-.31.1-.33.02-.02-.12-.02-.24.01-.35.27-.57.6-1.1,1-1.58.7-.94,1.54-1.75,2.5-2.42.72-.49,1.53-.84,2.39-1.02.53-.13,1.08-.11,1.59.06.56.18,1,.63,1.17,1.2.11.36.16.73.16,1.11,0,.16.04.32.1.48.04.07.12.1.2.09.15-.06.3-.13.42-.24.58-.47,1.14-.97,1.73-1.43.7-.53,1.51-.88,2.38-1.03,1.04-.23,2.12.19,2.73,1.06.35.47.57,1.02.65,1.6.07.45.08.91.1,1.16"/></g><g id="Group_36"><path id="Path_36" d="M86.62,17.61c.76.06,1.52.19,2.26.41.67.24,1.24.7,1.61,1.31.74,1.1.84,2.5.26,3.69-.3.64-.69,1.23-1.17,1.76-.95,1.1-2.11,2.01-3.41,2.68-1.69.9-3.55,1.42-5.46,1.52-.45.02-.91.03-1.37.06-.16.02-.33.05-.49.09-.16.06-.25.22-.22.39.06.15.14.3.24.44.23.3.52.54.86.7.93.48,1.97.68,3.01.57,1.29-.13,2.5-.69,3.42-1.6.42-.4.83-.81,1.25-1.22.26-.27.56-.5.9-.66.11-.05.23-.09.35-.13.29-.05.58.09.73.35.21.41.28.88.21,1.34-.19,1.42-.85,2.73-1.87,3.72-1.03.97-2.26,1.7-3.61,2.13-.75.25-1.52.41-2.31.47-1.48.19-2.94-.45-3.8-1.67-.76-1.05-1.24-2.28-1.39-3.57-.06-.45-.13-.91-.2-1.36-.03-.17-.14-.31-.29-.38-.25-.14-.52-.25-.77-.4-.14-.08-.27-.19-.39-.3-.19-.2-.18-.53.02-.72.05-.04.1-.08.16-.1.36-.09.73-.14,1.09-.21.17-.03.31-.14.37-.3.09-.23.17-.47.23-.72.32-1.25.89-2.43,1.67-3.47,1.01-1.38,2.27-2.56,3.72-3.46,1.2-.76,2.56-1.21,3.97-1.34.12-.01.25-.01.43-.02M85.59,21.88c.07-.75-.46-1.42-1.2-1.54-.45-.07-.92.01-1.31.25-.36.2-.7.44-1,.72-1.39,1.32-2.49,2.92-3.23,4.68-.04.12-.07.24-.08.36,0,.17.1.32.26.37.08.01.16.01.25.01,2.14-.36,4.09-1.47,5.49-3.12.29-.3.51-.66.65-1.05.09-.27.15-.56.18-.67"/></g><g id="Group_37"><path id="Path_37" d="M4.85,35.05c-.38-.03-.79-.04-1.2-.09-1.5-.13-2.76-1.17-3.16-2.62-.11-.36-.18-.73-.22-1.1-.07-.71.07-1.42.41-2.05.26-.52.59-1.01.97-1.45,1.5-1.75,3.55-2.93,5.82-3.35.57-.08,1.15-.1,1.73-.08.08,0,.16.02.24.05.19.04.33.36.22.5-.2.26-.42.51-.64.76-.41.41-.76.89-1.02,1.41-.12.26-.18.56-.17.85.02.6.45,1.11,1.04,1.23.61.12,1.25.07,1.84-.14.66-.23,1.31-.52,1.96-.78.08-.03.15-.07.22-.11,5.64-2.89,10.66-6.83,14.81-11.62.78-.92,1.51-1.88,2.28-2.81.16-.18.34-.35.54-.5.07-.04.16-.03.23,0,.06.05.09.13.08.21-.09.28-.2.54-.33.8-.34.62-.7,1.23-1.08,1.83-1.41,2.21-3.03,4.28-4.84,6.18-3.11,3.24-6.49,6.21-10.11,8.86-1.27.94-2.61,1.78-4,2.51-.95.52-1.95.92-2.99,1.2-.86.21-1.74.31-2.62.3"/></g><g id="Group_38"><path id="Path_38" d="M271.79,36.76c-1.83,0-3.63-.44-5.26-1.28-.6-.28-1.15-.68-1.6-1.18-.56-.58-.81-1.39-.7-2.19.09-.58.33-1.13.7-1.58.39-.49.88-.89,1.44-1.17.74-.37,1.54-.61,2.36-.74.08,0,.16.03.23.07.08.04.06.21-.02.34-.21.31-.44.61-.62.93-.14.25-.25.52-.33.8-.13.5.03,1.03.42,1.36.21.2.47.35.74.43.76.22,1.58.19,2.32-.09.48-.15.92-.39,1.31-.7.71-.53,1.14-1.36,1.16-2.25.03-.75-.04-1.5-.21-2.23-.2-.81-.46-1.6-.61-2.42-.13-.7-.2-1.4-.22-2.11,0-.25-.01-.5-.04-.75,0-.17-.09-.33-.24-.41-.15-.07-.34-.03-.45.09-.39.38-.79.74-1.14,1.15-.44.5-.83,1.04-1.26,1.55-.48.57-.98,1.13-1.49,1.68-.97.97-2.19,1.67-3.52,2.02-.52.15-1.07.17-1.59.05-.22-.07-.34-.31-.26-.53,0-.02.02-.05.03-.07.16-.19.33-.36.53-.52,1.26-.96,2.42-2.03,3.48-3.2.81-.89,1.57-1.83,2.34-2.76.54-.69,1.12-1.35,1.73-1.97.53-.52,1.14-.96,1.81-1.31.41-.21.88-.28,1.33-.2.43.04.79.35.88.77.1.41.16.82.19,1.23.13,1.62.35,3.23.68,4.83.38,1.96.89,3.9,1.55,5.79.16.47.28.96.42,1.44.25.85.13,1.77-.34,2.52-.35.62-.86,1.13-1.47,1.5-.98.63-2.11.99-3.27,1.07-.33.02-.66.03-.99.05"/></g><g id="Group_39"><path id="Path_39" d="M99.37,18.08c-.02.12-.07.49-.15.85-.16.73-.34,1.46-.5,2.19-.07.28-.06.58.03.86.1.24.37.36.61.27.22-.11.43-.24.63-.39.41-.35.8-.73,1.2-1.09.65-.58,1.3-1.16,1.97-1.72.54-.46,1.2-.76,1.89-.89.32-.07.66-.07.99,0,.2.04.41.09.61.13.82.19,1.54.68,2.01,1.37.38.46.46,1.1.21,1.65-.25.62-.55,1.22-.9,1.78-.17.3-.53.44-.86.33-.28-.08-.55-.18-.82-.28-.47-.17-.93-.36-1.4-.5-.51-.15-1.04-.27-1.57-.38-.16-.03-.33-.05-.49-.05-.68-.03-1.33.29-1.71.85-.31.44-.55.93-.71,1.45-.28.87-.52,1.76-.79,2.63-.32,1.04-.62,2.08-.98,3.1-.2.55-.44,1.08-.71,1.6-.62,1.24-1.68,2.21-2.96,2.73-.61.25-1.25.44-1.91.56-.7.1-1.42.01-2.07-.26-.11-.05-.22-.11-.32-.19-.58-.39-.78-1.15-.45-1.77.1-.19.2-.36.33-.53.17-.23.36-.46.54-.69,2.28-2.78,3.89-6.05,4.7-9.56.27-1.09.5-2.2.68-3.31.11-.8.61-1.49,1.33-1.85.29-.16.63-.22.96-.19.35.02.62.31.62.66,0,.12,0,.25,0,.63"/></g><g id="Group_40"><path id="Path_40" d="M218.32,20.67c.02.42-.07.84-.27,1.21-.17.33-.32.68-.52,1-.17.28-.37.55-.6.79-.44.54-1.22.66-1.81.28-.18-.09-.36-.2-.54-.31-.21-.13-.42-.26-.64-.39-1.01-.66-2.31-.61-3.27.12-.71.45-1.26,1.11-1.57,1.89-.2.5-.37,1.02-.5,1.54-.19.72-.34,1.46-.53,2.19-.42,1.66-1.18,3.22-2.23,4.57-.59.76-1.31,1.4-2.13,1.89-.77.42-1.62.66-2.49.71-.5.03-1-.1-1.42-.38-.34-.19-.53-.55-.51-.94-.01-.29.06-.58.21-.84.19-.32.39-.64.62-.93.65-.81,1.2-1.7,1.64-2.65.25-.53.5-1.05.73-1.59,1.01-2.38,2-4.76,3.01-7.14.23-.54.48-1.06.74-1.58.18-.37.43-.71.73-1,.15-.15.33-.25.53-.3.71-.17,1.18.24,1.03.94-.12.57-.29,1.13-.44,1.69-.14.48-.3.95-.42,1.44-.03.2-.03.41,0,.62.01.15.3.26.4.16.15-.14.29-.3.41-.46.33-.48.65-.97.98-1.45.65-.92,1.48-1.7,2.43-2.29,1.09-.71,2.38-1.03,3.67-.92.58.05,1.14.21,1.66.47.08.04.15.08.22.12.57.3.9.91.86,1.55"/></g><g id="Group_41"><path id="Path_41" d="M51.05,18.55c.88-.04,1.75.06,2.6.29.32.08.51.4.44.72,0,.02-.01.04-.02.06-.09.28-.21.54-.35.8-.41.72-.84,1.44-1.25,2.16-.91,1.58-1.83,3.16-2.73,4.76-.27.47-.47.97-.71,1.46-.14.3-.21.63-.21.97-.04.39.25.74.64.79.45.07.91.04,1.35-.08.88-.22,1.75-.51,2.59-.86.61-.25,1.23-.47,1.86-.69.08,0,.16.03.21.09.04.07.05.15.02.23-.13.26-.3.5-.48.72-.42.46-.86.9-1.32,1.32-1.15,1.02-2.37,1.96-3.64,2.82-1.21.81-2.58,1.34-4.02,1.54-.7.14-1.41.09-2.09-.14-.49-.16-.83-.6-.86-1.11-.06-.54-.04-1.08.05-1.62.17-.94.38-1.88.65-2.8.76-2.51,1.68-4.97,2.74-7.36.31-.68.67-1.34,1.03-1.99.24-.44.54-.84.9-1.19.52-.55,1.24-.87,1.99-.88h.6"/></g><g id="Group_42"><path id="Path_42" d="M216.33,32.91c.07-1,.24-1.99.51-2.96.45-1.65,1.02-3.26,1.69-4.83.37-.88.74-1.77,1.14-2.64.26-.56.58-1.11.89-1.64.26-.43.59-.81.98-1.12.45-.37.99-.61,1.57-.69.66-.09,1.32-.09,1.98,0,.16.02.32.06.48.12.52.15.82.69.67,1.21,0,.03-.02.07-.04.1-.1.32-.23.62-.4.91-.3.55-.62,1.08-.93,1.62-.81,1.41-1.62,2.81-2.43,4.22-.38.65-.65,1.35-.82,2.09-.08.33-.08.67,0,.99.07.49.53.83,1.02.76.03,0,.06,0,.08-.02.32-.06.64-.17.94-.31.78-.38,1.55-.8,2.32-1.2.22-.12.43-.25.65-.36.08-.02.16-.01.22.03.06.05.1.13.1.21,0,.12-.02.25-.07.36-.2.46-.47.88-.8,1.26-1.31,1.57-2.92,2.85-4.74,3.78-.71.35-1.45.61-2.22.78-.57.14-1.16.1-1.7-.12-.52-.19-.89-.65-.97-1.2-.08-.45-.09-.91-.14-1.37"/></g><g id="Group_43"><path id="Path_43" d="M51.25,14.19c.05-1.01.23-2.02.55-2.98.2-.64.59-1.2,1.1-1.62.44-.38,1.02-.57,1.6-.53.29.02.57.11.82.26.25.14.45.38.53.66.17.51.23,1.06.17,1.6-.06.54-.12,1.07-.21,1.6-.1.57-.33,1.12-.66,1.6-.46.76-1.29,1.21-2.18,1.18-.25,0-.49-.02-.74-.05-.46-.08-.83-.43-.92-.89-.04-.29-.05-.58-.06-.81"/></g><g id="Group_44"><path id="Path_44" d="M222.7,11.98c-.01-.33-.01-.67,0-1,.03-.29.1-.57.2-.84.17-.48.61-.82,1.12-.86.57-.09,1.16,0,1.68.26.56.29.94.84,1.03,1.47.11.7.11,1.41-.01,2.11-.12.74-.51,1.42-1.09,1.9-.38.34-.89.48-1.38.38-.2-.04-.39-.12-.56-.24-.37-.27-.64-.66-.76-1.1-.21-.67-.29-1.39-.23-2.09"/></g></svg>