<svg id="Component_186_1" data-name="Component 186 – 1" xmlns="http://www.w3.org/2000/svg" xmlns:xlink="http://www.w3.org/1999/xlink" width="720" height="50" viewBox="0 0 720 50">
  <defs>
    <clipPath id="clip-path">
      <path id="Path_45" data-name="Path 45" d="M0-50H720v-50H0Z" transform="translate(0 100)" fill="#0033a0"/>
    </clipPath>
  </defs>
  <g id="Group_45" data-name="Group 45" clip-path="url(#clip-path)">
    <g id="Group_1" data-name="Group 1" transform="translate(621.048 0)">
      <path id="Path_1" data-name="Path 1" d="M0-27.9a18.925,18.925,0,0,1,.193-2.8c.112-.613.125-1.244.222-1.861a50.77,50.77,0,0,1,1.445-5.821c.09-.32.169-.644.245-.968a.392.392,0,0,0-.24-.4c-.2-.066-.4-.11-.592-.177a3.052,3.052,0,0,1-.568-.236.411.411,0,0,1-.184-.291.352.352,0,0,1,.185-.278c.4-.11.806-.185,1.213-.264a2.486,2.486,0,0,1,.372-.028.8.8,0,0,0,.769-.527c.16-.384.346-.758.5-1.143A51.529,51.529,0,0,1,7.248-49.78,17.511,17.511,0,0,1,10.029-53.3a13.6,13.6,0,0,1,1.94-1.561,6.25,6.25,0,0,1,1.924-.854,2.92,2.92,0,0,1,1.355-.014,4.743,4.743,0,0,1,2.288,1.2,7.451,7.451,0,0,1,2.083,3.213,6.1,6.1,0,0,1,.217,1.354,9.245,9.245,0,0,1-2.246,6.7,7,7,0,0,1-2.476,1.853,15.62,15.62,0,0,1-3.9,1.242,25.664,25.664,0,0,1-5.434.5c-1.286-.027-1.374-.1-1.734,1.364a22.977,22.977,0,0,0-.691,6.447,7.229,7.229,0,0,0,.5,2.438,4.054,4.054,0,0,0,.475.873,2.5,2.5,0,0,0,2.877.9,3.769,3.769,0,0,0,.988-.517,19.488,19.488,0,0,0,5.29-5.408c.565-.875,1.111-1.761,1.653-2.651A4.459,4.459,0,0,1,15.98-37.3a5.163,5.163,0,0,1,.807-.574.924.924,0,0,1,1.139.191,2,2,0,0,1,.587,1.216,6.732,6.732,0,0,1-.818,4.347c-1.066,1.771-.836,1.36-.939,3.155-.045.792-.12,1.581-.166,2.373a5.986,5.986,0,0,0,.033.748c.008.122.243.313.357.288.4-.089.811-.166,1.206-.285a3.273,3.273,0,0,1,1.349-.144.6.6,0,0,1,.3.173c.092.088.025.333-.123.438a4.838,4.838,0,0,1-.731.462c-.414.191-.847.337-1.271.5-.308.121-.62.236-.921.374a.8.8,0,0,0-.48.68c-.072.663-.16,1.325-.222,1.989a28.5,28.5,0,0,1-.783,4.3c-.132.525-.3,1.042-.472,1.554a8.907,8.907,0,0,1-5.708,5.69,8.729,8.729,0,0,1-3.793.457A4.329,4.329,0,0,1,3.57-9.927a3.137,3.137,0,0,1-1.279-1.33,2.448,2.448,0,0,1-.278-1.077,6.47,6.47,0,0,1,.6-2.79,8.748,8.748,0,0,1,1.037-1.7A17.329,17.329,0,0,1,7.681-20.7a29.306,29.306,0,0,1,2.991-1.791c.989-.527,1.988-1.035,2.966-1.58,1.088-.606.964-.51,1.289-1.686.177-.642.316-1.3.451-1.949a3.028,3.028,0,0,0,.008-.616c0-.093-.219-.2-.29-.143a1.417,1.417,0,0,0-.284.234c-.225.3-.425.618-.65.917a16.016,16.016,0,0,1-6.778,5.324,8.732,8.732,0,0,1-4.261.611,2.631,2.631,0,0,1-1.976-1.153,6.106,6.106,0,0,1-.869-2.059A13.266,13.266,0,0,1,0-27.9M14.947-49.793a2.316,2.316,0,0,0-.285-1.323.864.864,0,0,0-.937-.451,5.836,5.836,0,0,0-2.34,1.093,14.405,14.405,0,0,0-3.4,3.435,22.806,22.806,0,0,0-2.343,4.528,2.129,2.129,0,0,0-.077.609.288.288,0,0,0,.244.245,2.213,2.213,0,0,0,.365-.021,13.811,13.811,0,0,0,6.348-3.211,6.859,6.859,0,0,0,2-2.963,5.994,5.994,0,0,0,.424-1.939M7.469-15.124c.045.321.065.613.13.894a1.416,1.416,0,0,0,1.228,1.069,1.891,1.891,0,0,0,1.505-.418,5.468,5.468,0,0,0,1.282-1.507,11.752,11.752,0,0,0,1.064-2.246c.4-1.222.791-2.449,1.153-3.683a7.965,7.965,0,0,0,.183-1.226c.019-.153-.2-.327-.327-.28a1.024,1.024,0,0,0-.12.031,13.156,13.156,0,0,0-4.839,4.179,6.26,6.26,0,0,0-.944,1.885c-.126.436-.215.884-.314,1.3" transform="translate(0 55.8)" fill="#0033a0"/>
    </g>
    <g id="Group_2" data-name="Group 2" transform="translate(591.858 9.744)">
      <path id="Path_2" data-name="Path 2" d="M-9.455-4.563c0-.835-.012-1.669,0-2.5a2.163,2.163,0,0,1,.629-1.459A1.861,1.861,0,0,1-6.547-8.9,3.543,3.543,0,0,1-4.99-7.17a1.459,1.459,0,0,1,.114.481,5.465,5.465,0,0,1-.167,1.981A29.857,29.857,0,0,1-6.917.051C-7.1.427-7.287.8-7.463,1.174a2.6,2.6,0,0,0-.113.356.354.354,0,0,0,.237.385C-6.6,2-5.86,2.1-5.118,2.16a10.7,10.7,0,0,1,2.549.513,6.737,6.737,0,0,1,1.123.517A1.581,1.581,0,0,1-1,3.617a.617.617,0,0,1-.267.933,1.873,1.873,0,0,1-.84.2c-.454-.025-.91-.039-1.36-.1a20.307,20.307,0,0,0-3.348-.125,1.53,1.53,0,0,0-1.008.426.91.91,0,0,0-.31.658,2.023,2.023,0,0,0,.177.974c.217.449.425.9.663,1.343.3.549.622,1.083.936,1.623a11.682,11.682,0,0,1,1.416,4.625,3.368,3.368,0,0,1,.005.625,12.71,12.71,0,0,1-2.153,6.437,14,14,0,0,1-3.551,3.637A8.924,8.924,0,0,1-13.568,26.2a4.6,4.6,0,0,1-3.145-.345,3.391,3.391,0,0,1-1.953-2.585,6.769,6.769,0,0,1,.181-3.216,19.507,19.507,0,0,1,1.252-3.126c.6-1.19,1.228-2.365,1.831-3.553q1.271-2.506,2.521-5.022c.149-.3.266-.612.42-.907a1.6,1.6,0,0,0,.044-1.44c-.176-.42-.27-.874-.412-1.31a3.476,3.476,0,0,1-.122-.988,1.52,1.52,0,0,1,1.124-1.479c.313-.1.647-.138.97-.209a.762.762,0,0,0,.622-.545,16.848,16.848,0,0,0,.49-1.807,16.069,16.069,0,0,0,.279-3.36c-.011-.291,0-.584,0-.876Zm-.993,22.371a15.36,15.36,0,0,0-.174-2.594c-.147-.819-.22-1.652-.328-2.479-.1-.785-.2-1.571-.316-2.354a1.592,1.592,0,0,0-.2-.447c-.045-.087-.268-.093-.33-.011a3.4,3.4,0,0,0-.292.4c-.583,1.057-1.175,2.109-1.733,3.181a24.234,24.234,0,0,0-1.585,3.8,11.106,11.106,0,0,0-.522,2.945,4.9,4.9,0,0,0,.281,2.091,1.453,1.453,0,0,0,1.682.969,3.326,3.326,0,0,0,1.774-.835,5.083,5.083,0,0,0,1.477-2.418,7.04,7.04,0,0,0,.272-2.251" transform="translate(18.78 9.127)" fill="#0033a0"/>
    </g>
    <g id="Group_3" data-name="Group 3" transform="translate(670.859 16.258)">
      <path id="Path_3" data-name="Path 3" d="M-8.508-11.994c-.594,0-1.216-.005-1.837.005a1.189,1.189,0,0,0-.35.1.331.331,0,0,0-.148.317,2.144,2.144,0,0,0,.192.451,4.325,4.325,0,0,0,2.3,1.623,6.222,6.222,0,0,0,1.826.327,18.832,18.832,0,0,0,3.574-.383c.448-.071.9-.118,1.355-.152.2-.015.437-.042.532.2a.644.644,0,0,1-.148.58A4.849,4.849,0,0,1-2.525-7.6,10.228,10.228,0,0,1-5.542-6.16a9.063,9.063,0,0,1-3.812.311A4.681,4.681,0,0,1-13.1-8.411a5.287,5.287,0,0,1-.607-1.892c-.06-.538-.141-1.074-.235-1.608a.431.431,0,0,0-.331-.339c-.2-.046-.407-.067-.611-.1a5.575,5.575,0,0,1-1.553-.41.67.67,0,0,1-.452-.674c.051-.28.265-.4.5-.5a3.311,3.311,0,0,1,1.333-.248c1.554.008,1.341.063,1.813-1.294A13.138,13.138,0,0,1-8.16-22.088,11.054,11.054,0,0,1-3.323-23.92a5.435,5.435,0,0,1,2.814.276A3.477,3.477,0,0,1,1.72-21.292a4.415,4.415,0,0,1,.02,1.984,8.31,8.31,0,0,1-2.946,4.94,9.6,9.6,0,0,1-5.786,2.3c-.5.03-.993.047-1.516.072m3.159-8.429a3.126,3.126,0,0,0-1.765.511,9.112,9.112,0,0,0-3.916,4.851,1.653,1.653,0,0,0-.049.491.357.357,0,0,0,.322.318,1.966,1.966,0,0,0,.369-.013,9.958,9.958,0,0,0,5.014-2.841,5.15,5.15,0,0,0,.6-.792A3.287,3.287,0,0,0-4.3-19.048a1.088,1.088,0,0,0-1.051-1.375" transform="translate(16.9 23.988)" fill="#0033a0"/>
    </g>
    <g id="Group_4" data-name="Group 4" transform="translate(702.958 15.743)">
      <path id="Path_4" data-name="Path 4" d="M-2.219-12.779c-.4-.146-.718-.248-1.022-.375a5.4,5.4,0,0,1-.775-.387,1.42,1.42,0,0,1-.334-.361.419.419,0,0,1,.124-.55,2,2,0,0,1,.946-.271c.331-.013.662-.026.992-.058a.5.5,0,0,0,.384-.287,3.961,3.961,0,0,0,.2-.455c.162-.429.312-.863.475-1.291a16.325,16.325,0,0,1,3.989-5.979,10.479,10.479,0,0,1,4.625-2.585,4.673,4.673,0,0,1,3.049.166,3.352,3.352,0,0,1,2.137,2.849A6.253,6.253,0,0,1,11.4-17.751a8.572,8.572,0,0,1-.7.88,13.224,13.224,0,0,1-7.227,4.134,21.434,21.434,0,0,1-2.35.2c-.329.027-.658.048-.986.087a.319.319,0,0,0-.164.5A4.127,4.127,0,0,0,.5-11.43,3.456,3.456,0,0,0,1.98-10.8a8.512,8.512,0,0,0,1.85.194A14.528,14.528,0,0,0,8.8-11.6c.461-.185.927-.361,1.393-.533.2-.073.4.124.375.361a2.337,2.337,0,0,1-.08.49A4.191,4.191,0,0,1,9.269-9.426,8.635,8.635,0,0,1,5.332-7.392c-.2.045-.412.057-.613.1A6.238,6.238,0,0,1,.065-8.145a4.341,4.341,0,0,1-2.1-2.68,5.216,5.216,0,0,1-.146-.858c-.03-.328-.024-.66-.036-1.1m2.7-2.169a5.492,5.492,0,0,0,.647-.073,11.032,11.032,0,0,0,4.254-1.916A6.05,6.05,0,0,0,6.6-18.167a3.01,3.01,0,0,0,.51-1.124,1.006,1.006,0,0,0-.556-1.135,2.016,2.016,0,0,0-.7-.2,3.737,3.737,0,0,0-.978.082,4.622,4.622,0,0,0-2.4,1.452,13.8,13.8,0,0,0-2.338,3.5.954.954,0,0,0-.093.358.258.258,0,0,0,.121.2,1.438,1.438,0,0,0,.319.09" transform="translate(4.408 25.558)" fill="#0033a0"/>
    </g>
    <g id="Group_5" data-name="Group 5" transform="translate(581.517 17.963)">
      <path id="Path_5" data-name="Path 5" d="M-.014-12.039a9.609,9.609,0,0,1,.819-4.009,14.129,14.129,0,0,1,4.652-6.061,11.028,11.028,0,0,1,2.707-1.509,7.042,7.042,0,0,1,3.539-.39,1.855,1.855,0,0,1,.466.151.4.4,0,0,1,.082.7,3.013,3.013,0,0,1-.637.377c-.384.151-.783.268-1.179.385a8.975,8.975,0,0,0-2.069.833,8.072,8.072,0,0,0-3.223,3.7,4.315,4.315,0,0,0-.281.956,1.98,1.98,0,0,0,.272,1.443,1.452,1.452,0,0,0,1.22.747,3.114,3.114,0,0,0,2.359-.931,4.163,4.163,0,0,0,1.18-2.022c.106-.4.176-.816.3-1.211a3.542,3.542,0,0,1,1.214-1.844,1.313,1.313,0,0,1,1.179-.223,2.1,2.1,0,0,1,1.269.945,2.928,2.928,0,0,1,.421,1.164,9.077,9.077,0,0,1-.292,3.714A10.868,10.868,0,0,1,9.337-8.846,8.47,8.47,0,0,1,6.119-7.592c-.448.075-.9.163-1.347.207A5.436,5.436,0,0,1,2.809-7.61,3.792,3.792,0,0,1-.008-11.039a8.29,8.29,0,0,1-.006-1" transform="translate(0.027 24.079)" fill="#0033a0"/>
    </g>
    <g id="Group_6" data-name="Group 6" transform="translate(656.978 16.689)">
      <path id="Path_6" data-name="Path 6" d="M-11.5-14.648a9.463,9.463,0,0,0,2.224-.181,1.548,1.548,0,0,1,.858,0c.116.037.275.3.229.408a3.11,3.11,0,0,1-.21.451,5.654,5.654,0,0,1-1.563,1.592A7.7,7.7,0,0,1-15.885-11.1a5.682,5.682,0,0,1-2.769-1.343,4.664,4.664,0,0,1-1.537-2.514,6.455,6.455,0,0,1-.239-1.855,6.763,6.763,0,0,0-.01-.751.507.507,0,0,0-.324-.486c-.271-.1-.554-.177-.822-.285-.306-.124-.607-.264-.9-.414a1.31,1.31,0,0,1-.281-.239.415.415,0,0,1,.162-.622,3.944,3.944,0,0,1,1.224-.167c.289,0,.58.007.868-.017a.467.467,0,0,0,.385-.282,4.439,4.439,0,0,0,.2-.587,13.478,13.478,0,0,1,2.475-4.866A13.4,13.4,0,0,1-16.184-26.9a8.671,8.671,0,0,1,5.244-2.321,9.5,9.5,0,0,1,2.478.015,3.759,3.759,0,0,1,.715.195,2.789,2.789,0,0,1,1.714,3.445A7.116,7.116,0,0,1-7-23.411c-.116.172-.24.34-.366.5a13.774,13.774,0,0,1-7.09,4.588,11.714,11.714,0,0,1-1.586.289,2.194,2.194,0,0,0-1.065.289.251.251,0,0,0-.092.207,1.628,1.628,0,0,0,.152.468,3.432,3.432,0,0,0,.893,1.032,6.077,6.077,0,0,0,3.4,1.381c.412.031.828.005,1.242.005m.25-10.235A1.4,1.4,0,0,0-13-26.416a3.166,3.166,0,0,0-1.039.394,8.074,8.074,0,0,0-3.464,4.27,4.118,4.118,0,0,0-.3,1.588.5.5,0,0,0,.456.494,3.289,3.289,0,0,0,.738-.068,8.326,8.326,0,0,0,4.093-2.472,4.935,4.935,0,0,0,1.137-2.055c.064-.24.1-.488.12-.618" transform="translate(22.852 29.297)" fill="#0033a0"/>
    </g>
    <g id="Group_7" data-name="Group 7" transform="translate(639.845 16.012)">
      <path id="Path_7" data-name="Path 7" d="M-17.958-6.452c-.26-.049-.587-.1-.909-.173-.363-.085-.718-.208-1.081-.289A3.673,3.673,0,0,0-24.039-5.25a6.255,6.255,0,0,0-.7,1.459c-.251.794-.482,1.6-.728,2.391-.234.756-.461,1.516-.723,2.262a9.564,9.564,0,0,1-1.419,2.63,7.11,7.11,0,0,1-3.712,2.6A6.64,6.64,0,0,1-34.4,6.2a2.174,2.174,0,0,1-1.112-.525.522.522,0,0,1-.112-.575,2.351,2.351,0,0,1,.279-.411c.286-.3.577-.6.887-.877a8.862,8.862,0,0,0,1.646-2.028A26.05,26.05,0,0,0-29.824-5.2c.294-1.128.512-2.276.757-3.416.1-.489.185-.983.287-1.472a3,3,0,0,1,.576-1.234A4.338,4.338,0,0,1-26.087-12.8a2.688,2.688,0,0,1,1.231-.068.717.717,0,0,1,.582.707,2.044,2.044,0,0,1-.086.489c-.162.472-.342.939-.514,1.408-.245.665-.495,1.328-.732,1.995a2.164,2.164,0,0,0-.1,1.11c.013.076.063.187.119.2a.48.48,0,0,0,.35,0,2.2,2.2,0,0,0,.452-.423,13.9,13.9,0,0,1,4.7-3.433,5.829,5.829,0,0,1,2.381-.656A9.763,9.763,0,0,1-16.6-11.4a1.623,1.623,0,0,1,.885.423,1.246,1.246,0,0,1,.472.851A3.859,3.859,0,0,1-16.5-6.867a1.351,1.351,0,0,1-.9.386c-.165.009-.331.017-.566.029" transform="translate(35.671 12.904)" fill="#0033a0"/>
    </g>
    <g id="Group_8" data-name="Group 8" transform="translate(688.909 16.565)">
      <path id="Path_8" data-name="Path 8" d="M-4.184-18.4a4.361,4.361,0,0,1-2.388-.582,3.17,3.17,0,0,1-1.664-2.5A8.222,8.222,0,0,1-7.9-25.187a27.937,27.937,0,0,1,3.1-6.532,15.165,15.165,0,0,1,2.214-2.7c.362-.341.745-.664,1.139-.969a6.915,6.915,0,0,1,4.787-1.4,4.934,4.934,0,0,1,2.245.665,2.848,2.848,0,0,1,1.447,2.47,3.991,3.991,0,0,1,0,.626,13.43,13.43,0,0,1-.454,2.582,4.62,4.62,0,0,1-1.231,2,2.862,2.862,0,0,1-.926.62,1.64,1.64,0,0,1-.481.1.89.89,0,0,1-.94-.8,6.072,6.072,0,0,1,.106-1.62,8.879,8.879,0,0,0,.122-1.872A2.491,2.491,0,0,0,2.967-33.1,1.882,1.882,0,0,0,1.3-34.231a2.983,2.983,0,0,0-2.058.743,7.592,7.592,0,0,0-1.375,1.442,13.747,13.747,0,0,0-1.584,2.686,4.349,4.349,0,0,0-.434,1.81,3.723,3.723,0,0,0,1.427,2.932,2.369,2.369,0,0,0,1.486.567A7.32,7.32,0,0,0,.62-24.177c.565-.128,1.136-.233,1.708-.326a1.186,1.186,0,0,1,.942.226.764.764,0,0,1,.315.517,1.848,1.848,0,0,1-.267,1.319,6.474,6.474,0,0,1-.517.7,9.9,9.9,0,0,1-5.868,3.266,10.212,10.212,0,0,1-1.116.071" transform="translate(8.31 36.803)" fill="#0033a0"/>
    </g>
    <g id="Group_9" data-name="Group 9" transform="translate(270.878 8.857)">
      <path id="Path_9" data-name="Path 9" d="M0-20.247A13.187,13.187,0,0,1,1-25,26.645,26.645,0,0,1,2.2-27.61a32.773,32.773,0,0,1,4.135-6.236,27.9,27.9,0,0,1,4.739-4.226,13.038,13.038,0,0,1,1.4-.8,2.291,2.291,0,0,1,1.208-.226,1.278,1.278,0,0,1,1.1.7,1,1,0,0,1-.151,1.16,4.539,4.539,0,0,1-.487.383A13.621,13.621,0,0,0,11.6-34.482a22.718,22.718,0,0,0-2.827,4.109A15.442,15.442,0,0,0,7.263-25.5a3.813,3.813,0,0,0,.146,1.731,1.768,1.768,0,0,0,1.763,1.308,4.1,4.1,0,0,0,1.577-.294,6.866,6.866,0,0,0,1.81-1.084,12.923,12.923,0,0,0,4.32-6.435,6.005,6.005,0,0,0,.214-2.842,4.176,4.176,0,0,0-.434-1.293c-.082-.145-.169-.287-.256-.43a4.431,4.431,0,0,1-.133-4.311,2.113,2.113,0,0,1,1.463-1.237,2.768,2.768,0,0,1,2.262.34,4.423,4.423,0,0,1,.7.517,8.25,8.25,0,0,1,1.912,2.446,5.943,5.943,0,0,1,.613,3.634,16.86,16.86,0,0,1-1.927,5.78A32.689,32.689,0,0,1,12.514-17.39a13.994,13.994,0,0,1-5.091,2.53,11.224,11.224,0,0,1-3.582.194,2.924,2.924,0,0,1-.719-.187A4.456,4.456,0,0,1,.092-18.623C.033-19.161.029-19.705,0-20.247" transform="translate(0 40.493)" fill="#0033a0"/>
    </g>
    <g id="Group_10" data-name="Group 10" transform="translate(85.486 5.507)">
      <path id="Path_10" data-name="Path 10" d="M-10.806-12.238c.5.027.875.048,1.248.066a1.989,1.989,0,0,1,1.036.384,1.616,1.616,0,0,1,.335.36.506.506,0,0,1,.007.585,1.727,1.727,0,0,1-1.095.764c-.441.112-.893.186-1.342.26a9.32,9.32,0,0,0-4.4,1.912,6.776,6.776,0,0,0-1.652,1.854A3.606,3.606,0,0,0-17.2-3.781a1.843,1.843,0,0,0,1.247,1.57,2.228,2.228,0,0,0,1.462-.083,3.86,3.86,0,0,0,1.23-.833,6.556,6.556,0,0,0,1.179-1.6c.253-.478.488-.967.741-1.445a8.244,8.244,0,0,1,.561-.973,3.412,3.412,0,0,1,.681-.72A1.758,1.758,0,0,1-8.445-8.1a1.12,1.12,0,0,1,.416.264c.18.17.328.375.5.553a.29.29,0,0,0,.215.084.26.26,0,0,0,.205-.264c.078-.789.16-1.577.227-2.367.064-.748.112-1.5.168-2.246.009-.125.029-.249.034-.374.05-1.335.189-2.665.256-4,.061-1.211.191-2.413.316-3.615a8.457,8.457,0,0,1,.586-2.424,3.17,3.17,0,0,1,1.927-1.837,1.654,1.654,0,0,1,.357-.1,5.808,5.808,0,0,1,4.921,1.571,3.976,3.976,0,0,1,1.274,2.9,9.9,9.9,0,0,1-.035,1.125,1.468,1.468,0,0,1-1.1,1.22,4.041,4.041,0,0,1-2.207-.119c-.623-.225-1.224-.509-1.838-.758a10.075,10.075,0,0,0-1.047-.385.826.826,0,0,0-1,.527A2.523,2.523,0,0,0-4.483-17c.09.787.166,1.578.294,2.359.168,1.028.388,2.047.575,3.073A22.419,22.419,0,0,1-3.33-5.709a19.407,19.407,0,0,1-.816,4.166A31.671,31.671,0,0,1-5.51,2.215,8.8,8.8,0,0,1-6.734,4.241,3.524,3.524,0,0,1-8.2,5.365a.4.4,0,0,1-.457-.078.43.43,0,0,1-.135-.319A3.558,3.558,0,0,1-8.5,4.287a9.063,9.063,0,0,0,.916-2.969,25.171,25.171,0,0,0,.247-2.991c.016-.583.086-1.165.114-1.748a2.636,2.636,0,0,0-.058-.614c-.009-.049-.121-.086-.191-.11a.122.122,0,0,0-.1.051,3.221,3.221,0,0,0-.214.439,22.951,22.951,0,0,1-.983,2.432,15.628,15.628,0,0,1-2.381,3.652,9.581,9.581,0,0,1-4.428,2.89,5.518,5.518,0,0,1-2.463.107,3.1,3.1,0,0,1-1.635-.852,5.523,5.523,0,0,1-1.634-3.023,11.856,11.856,0,0,1,.369-5.193,13.646,13.646,0,0,1,1.244-3,10.561,10.561,0,0,1,4.509-4.354,11.805,11.805,0,0,1,2.913-1.062,14.572,14.572,0,0,1,1.472-.183" transform="translate(21.463 24.476)" fill="#0033a0"/>
    </g>
    <g id="Group_11" data-name="Group 11" transform="translate(183.154 6.276)">
      <path id="Path_11" data-name="Path 11" d="M-15.831-18.972c-.07.578-.134,1.157-.212,1.734-.089.661-.208,1.319-.284,1.981a4.37,4.37,0,0,0,.2,2.1,1.466,1.466,0,0,0,1.3,1.005c.411.038.828,0,1.241.02a4.166,4.166,0,0,1,.607.085.383.383,0,0,1,.216.408,2.628,2.628,0,0,1-.264.561,5.182,5.182,0,0,1-.655.748,8.657,8.657,0,0,1-2.4,1.535,4.263,4.263,0,0,1-2.189.312,1.9,1.9,0,0,1-1.67-1.3,3.655,3.655,0,0,1-.284-1.339c0-.709-.025-1.418-.025-2.128a7.4,7.4,0,0,0-.227-1.733,2.373,2.373,0,0,0-.494-1,1.1,1.1,0,0,0-1.332-.35,4.278,4.278,0,0,0-1.356.866,10.208,10.208,0,0,0-1.66,1.855c-.355.514-.675,1.051-1.028,1.566-.517.754-1.041,1.505-1.582,2.243a4.6,4.6,0,0,1-1.061,1.047,1.416,1.416,0,0,1-.936.264.475.475,0,0,1-.48-.469,3.263,3.263,0,0,1,.079-.616c.323-1.25.66-2.5.987-3.746q.3-1.148.578-2.3a5.851,5.851,0,0,0,.1-.617.681.681,0,0,0-.076-.591c-.083-.1-.3-.03-.548.178s-.5.437-.755.652-.506.431-.772.631a.849.849,0,0,1-.339.139.281.281,0,0,1-.218-.067.31.31,0,0,1-.079-.22.89.89,0,0,1,.089-.359c.14-.256.295-.5.458-.744a32.069,32.069,0,0,1,2.511-3.262c.165-.187.334-.371.5-.557a1.953,1.953,0,0,0,.461-.872c.131-.567.307-1.124.448-1.69a52.729,52.729,0,0,1,2.768-8.024,18.241,18.241,0,0,1,2.773-4.432,9.1,9.1,0,0,1,1.146-1.143,5.334,5.334,0,0,1,3.651-1.336,6.17,6.17,0,0,1,2.077.3,5.157,5.157,0,0,1,2.284,1.669A2.874,2.874,0,0,1-11.631-34a2.354,2.354,0,0,1-.343,1.185,9.576,9.576,0,0,1-.894,1.2c-.611.68-1.232,1.354-1.895,1.983-1.779,1.689-3.59,3.343-5.371,5.028-1.268,1.2-2.491,2.448-3.767,3.639a9.465,9.465,0,0,0-1.94,2.731,15.914,15.914,0,0,0-.977,2.565,1.294,1.294,0,0,0-.021.493c0,.056.1.109.167.15a.119.119,0,0,0,.112-.006,2.158,2.158,0,0,0,.354-.342c.361-.509.707-1.029,1.059-1.544a19.872,19.872,0,0,1,2.079-2.648,8.056,8.056,0,0,1,2.861-1.945,4.9,4.9,0,0,1,2.059-.382,2.748,2.748,0,0,1,1.293.4,1.876,1.876,0,0,1,.952,1.526c.026.332,0,.667,0,1l.068.006m-.639-13.806a2.553,2.553,0,0,0-.194-.583,1.49,1.49,0,0,0-1.223-.737,2.7,2.7,0,0,0-1.764.454,7.443,7.443,0,0,0-.868.7,5.383,5.383,0,0,0-1.016,1.406A29.273,29.273,0,0,0-23.8-25.619,4.231,4.231,0,0,0-23.9-25a.637.637,0,0,0,0,.248.334.334,0,0,0,.128.192.246.246,0,0,0,.221,0,9,9,0,0,0,.739-.659c1.128-1.157,2.257-2.315,3.37-3.488.684-.721,1.342-1.468,2.009-2.207a3.714,3.714,0,0,0,.752-1.136c.088-.229.136-.473.206-.726" transform="translate(31.445 37.944)" fill="#0033a0"/>
    </g>
    <g id="Group_12" data-name="Group 12" transform="translate(249.351 6.628)">
      <path id="Path_12" data-name="Path 12" d="M-9.929-3.64a14.687,14.687,0,0,1-1.011,5.122c-.143.346-.286.693-.407,1.046a.486.486,0,0,0,.432.624,5.26,5.26,0,0,0,1.107-.1,18.526,18.526,0,0,1,2.213-.31,5.852,5.852,0,0,1,1.114.019c.413.029.823.1,1.235.132A6.013,6.013,0,0,1-3.332,3.4,3.5,3.5,0,0,1-1.3,5.64a6.367,6.367,0,0,1,.292,2.719,18.139,18.139,0,0,1-1.14,4.6,14.332,14.332,0,0,1-3.962,5.529,10.713,10.713,0,0,1-6.565,2.656,6.932,6.932,0,0,1-3.4-.569,6,6,0,0,1-3.586-4.632,11.192,11.192,0,0,1-.039-1.872,1.8,1.8,0,0,1,.266-.826,1.089,1.089,0,0,1,.883-.606,1.9,1.9,0,0,1,1.515.4c.224.186.439.383.672.557a8.638,8.638,0,0,0,.922.632,2.957,2.957,0,0,0,2.16.337,6.447,6.447,0,0,0,4.559-3.718,3.2,3.2,0,0,0-.107-3.117,3.431,3.431,0,0,0-.635-.76,1.752,1.752,0,0,0-1.124-.475,5.618,5.618,0,0,0-2.09.194c-.708.233-1.426.433-2.131.673a3.467,3.467,0,0,1-1.348.151.59.59,0,0,1-.573-.775,3.509,3.509,0,0,1,.178-.6c.236-.578.483-1.152.731-1.725q1.316-3.038,2.636-6.076c.632-1.453,1.157-2.945,1.649-4.451a10.426,10.426,0,0,1,.42-1.033c.081-.18.41-.174.531-.019a2.019,2.019,0,0,1,.375.915A10.653,10.653,0,0,1-9.929-3.64" transform="translate(19.722 7.28)" fill="#0033a0"/>
    </g>
    <g id="Group_13" data-name="Group 13" transform="translate(0 0)">
      <path id="Path_13" data-name="Path 13" d="M-13.27-.01A14.45,14.45,0,0,1-7.8.99c.7.262,1.382.563,2.076.841,1.154.463,2.3.942,3.467,1.376a13.226,13.226,0,0,0,3.748.833,11.3,11.3,0,0,0,2.23.122,25.741,25.741,0,0,0,2.963-.334.85.85,0,0,1,.368.009.282.282,0,0,1,.177.146A.259.259,0,0,1,7.2,4.2a1.207,1.207,0,0,1-.281.238,4.308,4.308,0,0,1-1.5.593,12.483,12.483,0,0,1-2.208.35c-.455.011-.909.071-1.363.113a18.812,18.812,0,0,1-4.216-.044c-1.4-.185-2.776-.459-4.158-.73a16.109,16.109,0,0,0-2.58-.38,7.77,7.77,0,0,1-.864-.1,8.176,8.176,0,0,0-3.2.259,7.188,7.188,0,0,0-2.936,1.58,11.918,11.918,0,0,0-3.8,6.322A5.282,5.282,0,0,0-20,14.521a2.4,2.4,0,0,0,1.836,2.126,4.368,4.368,0,0,0,1.971.046c.937-.169,1.871-.358,2.807-.533a5.192,5.192,0,0,1,.615-.079,1.112,1.112,0,0,1,.7.207.72.72,0,0,1,.324.51,2.14,2.14,0,0,1-.184,1.219,6.767,6.767,0,0,1-2.1,2.6,8.2,8.2,0,0,1-3.141,1.452,10.381,10.381,0,0,1-2.955.33,10.129,10.129,0,0,1-2.56-.463,4.963,4.963,0,0,1-3.608-4.607,14.412,14.412,0,0,1,.8-6.282,23.932,23.932,0,0,1,3.447-6.489,14.026,14.026,0,0,1,3.124-3.028,8.4,8.4,0,0,1,4.4-1.532c.413-.029.829,0,1.243,0" transform="translate(26.358 0.019)" fill="#0033a0"/>
    </g>
    <g id="Group_14" data-name="Group 14" transform="translate(140.396 10.028)">
      <path id="Path_14" data-name="Path 14" d="M-6.723-15.89c-.18-.59-.338-1.152-.523-1.7a3.946,3.946,0,0,1-.179-1.481,1.319,1.319,0,0,1,.787-1.184,3.848,3.848,0,0,1,.7-.234c.2-.052.409-.067.61-.115a.722.722,0,0,0,.549-.463,10.681,10.681,0,0,0,.594-2.3,27.016,27.016,0,0,0,.224-4.122c-.029-.749.016-1.5.03-2.253a2.124,2.124,0,0,1,.822-1.62,1.664,1.664,0,0,1,1.752-.292A3.217,3.217,0,0,1,.592-29.51a2.975,2.975,0,0,1-.039,1.732c-.222.76-.437,1.524-.712,2.264a31.05,31.05,0,0,1-1.633,3.65c-.52.992-.4,1.261.7,1.3.456.016.912.04,1.366.078a12.621,12.621,0,0,1,2.794.564,3.161,3.161,0,0,1,1.2.639,1.972,1.972,0,0,1,.309.386.58.58,0,0,1-.145.68,1.583,1.583,0,0,1-.923.319A9.332,9.332,0,0,1,1.649-18,14.316,14.316,0,0,0-1.2-18.13a1.666,1.666,0,0,0-1.132.442.923.923,0,0,0-.329.778,2.767,2.767,0,0,0,.283,1.082c.235.441.452.892.691,1.33.2.366.417.721.629,1.08A10.551,10.551,0,0,1-.736-2.9,13.289,13.289,0,0,1-4.861,2.036,8.934,8.934,0,0,1-7.853,3.52a4.945,4.945,0,0,1-3.283-.239,3.2,3.2,0,0,1-1.685-1.6,4.97,4.97,0,0,1-.439-3.166,14.062,14.062,0,0,1,1.054-3.2c.387-.83.786-1.656,1.2-2.471.723-1.409,1.481-2.8,2.194-4.213.619-1.227,1.2-2.474,1.789-3.716.106-.224.174-.467.3-.806M-4.89-5.061c-.053-.537-.1-1.076-.161-1.613q-.178-1.549-.371-3.1c-.094-.743-.187-1.486-.313-2.224a2.46,2.46,0,0,0-.287-.677c-.021-.04-.163-.061-.216-.031a.721.721,0,0,0-.271.246A50.282,50.282,0,0,0-9.259-7.145a16.186,16.186,0,0,0-1.156,4.066A6.144,6.144,0,0,0-10.266-.6a2.593,2.593,0,0,0,.237.572A1.466,1.466,0,0,0-8.449.695,3.666,3.666,0,0,0-6.6-.254a4.816,4.816,0,0,0,1.21-1.863,8.657,8.657,0,0,0,.5-2.944" transform="translate(13.354 31.78)" fill="#0033a0"/>
    </g>
    <g id="Group_15" data-name="Group 15" transform="translate(0.108 6.626)">
      <path id="Path_15" data-name="Path 15" d="M0-25.817a4.378,4.378,0,0,1,2.3-3.741c.437-.237.892-.44,1.344-.648.9-.414,1.814-.82,2.72-1.232a16.178,16.178,0,0,0,3.865-2.484,38.034,38.034,0,0,0,6.591-7.464,4.951,4.951,0,0,0,.3-.546.383.383,0,0,0-.212-.51c-.274-.094-.557-.159-.827-.263a3.335,3.335,0,0,1-1.9-1.869.838.838,0,0,1-.009-.367c.007-.1.212-.225.285-.184a3.753,3.753,0,0,1,.535.312,3.5,3.5,0,0,0,2.957.537c.081-.013.159-.046.24-.065A1.582,1.582,0,0,0,19.2-45c.208-.311.452-.6.684-.891a22,22,0,0,1,3.77-3.8A19.427,19.427,0,0,1,25.3-50.82a5.919,5.919,0,0,1,1.962-.754,3.235,3.235,0,0,1,1.71.138.688.688,0,0,1,.381.928,1.129,1.129,0,0,1-.576.629c-.343.147-.692.279-1.039.415a12.819,12.819,0,0,0-5.179,3.982,1.176,1.176,0,0,0-.111.221.355.355,0,0,0,.08.345c.278.178.574.331.835.529a2.059,2.059,0,0,1,.706,2.122c-.035.125-.208.206-.294.137a3.519,3.519,0,0,1-.283-.24,2.439,2.439,0,0,0-1.451-.643,2.16,2.16,0,0,0-.5,0,1.245,1.245,0,0,0-1.086.708,34.012,34.012,0,0,0-1.742,3.873c-.459,1.253-.925,2.5-1.471,3.719a32.975,32.975,0,0,1-2.514,4.6,20.123,20.123,0,0,1-4.946,5.233q-1.055.773-2.16,1.476a11.655,11.655,0,0,1-1.323.689,5.752,5.752,0,0,1-3.292.365A3.574,3.574,0,0,1,.691-23.7,3.332,3.332,0,0,1,0-25.817" transform="translate(0 51.634)" fill="#0033a0"/>
    </g>
    <g id="Group_16" data-name="Group 16" transform="translate(229.953 6.574)">
      <path id="Path_16" data-name="Path 16" d="M-17.517-13.355a29.867,29.867,0,0,0-5.209.509,1.155,1.155,0,0,0-.917.75A13.553,13.553,0,0,0-24.5-8.712c-.155,1.114-.219,2.24-.479,3.34a7.354,7.354,0,0,1-1.531,3.107,20.14,20.14,0,0,1-4.913,4.187,5.723,5.723,0,0,1-1.478.643,1.512,1.512,0,0,1-1.085-.121,1.047,1.047,0,0,1-.523-.514A2.471,2.471,0,0,1-34.772.845c.008-.334-.007-.669.016-1a17.142,17.142,0,0,1,2.47-7.915c.414-.675.841-1.34,1.251-2.017a6.988,6.988,0,0,0,.329-.668c.038-.082-.1-.28-.2-.275a2.353,2.353,0,0,0-.488.046,4.959,4.959,0,0,1-1.725.149,1.76,1.76,0,0,1-1.548-1.087,1.152,1.152,0,0,1,.15-1.289,3.224,3.224,0,0,1,.976-.761,10.451,10.451,0,0,1,2.305-.92,16.6,16.6,0,0,1,2.917-.593c.082-.008.165-.015.247-.026a2.827,2.827,0,0,0,2.285-1.082,24.415,24.415,0,0,1,3.032-2.388q1.5-1.008,3.01-2a52.551,52.551,0,0,0,7.392-5.7.137.137,0,0,1,.115-.03c.095.033.1.1.062.2a10.13,10.13,0,0,1-1.51,2.434,31.891,31.891,0,0,1-3.128,3.391A43.95,43.95,0,0,0-20.4-16.865c-.188.221-.36.456-.532.691a.31.31,0,0,0,.213.477c.4.083.81.165,1.22.215A16.314,16.314,0,0,1-17.068-15a2.741,2.741,0,0,1,1.1.549,1.54,1.54,0,0,1,.295.394.541.541,0,0,1-.263.631,1.559,1.559,0,0,1-.364.07c-.5.007-.994,0-1.22,0" transform="translate(34.794 26.709)" fill="#0033a0"/>
    </g>
    <g id="Group_17" data-name="Group 17" transform="translate(66.332 17.57)">
      <path id="Path_17" data-name="Path 17" d="M-19.263-3.7a6.714,6.714,0,0,1-.306,2.029c-.256.7-.475,1.424-.767,2.112A33.555,33.555,0,0,1-23.38,6.03a14.614,14.614,0,0,1-2.067,2.492,5.443,5.443,0,0,1-2.475,1.369,3.317,3.317,0,0,1-1.354.049.8.8,0,0,1-.648-.8,2.69,2.69,0,0,1,.322-1.2q.82-1.684,1.685-3.344c.346-.664.738-1.3,1.1-1.962A13.811,13.811,0,0,0-25.814.489a9.635,9.635,0,0,0,.337-1.2,1.784,1.784,0,0,0-.307-1.426.963.963,0,0,0-.726-.427,1.578,1.578,0,0,0-1.061.269,3.744,3.744,0,0,0-.978.95A18.284,18.284,0,0,0-29.566.224c-.445.8-.847,1.624-1.259,2.442-.6,1.19-1.2,2.378-1.909,3.51a19.392,19.392,0,0,1-1.593,2.234,7.643,7.643,0,0,1-1.538,1.448,2.58,2.58,0,0,1-1.267.467.969.969,0,0,1-1.124-1.144A5.2,5.2,0,0,1-37.9,7.732a12.976,12.976,0,0,1,1.138-2.22c.559-.878,1.15-1.734,1.727-2.6S-33.864,1.19-33.31.31c.288-.456.513-.951.757-1.433a2.37,2.37,0,0,0,.222-1.216.773.773,0,0,0-.693-.758,2.228,2.228,0,0,0-.493-.022,3.9,3.9,0,0,0-1.42.428c-.519.258-1.024.545-1.544.8a3.482,3.482,0,0,1-.582.19c-.1.03-.262-.131-.241-.232a1.181,1.181,0,0,1,.046-.241,6.114,6.114,0,0,1,.382-.784,9.075,9.075,0,0,1,6.1-4.345,3.8,3.8,0,0,1,2.08.118,1.041,1.041,0,0,1,.766,1.35c-.075.324-.182.64-.274.96a.706.706,0,0,0-.062.239.776.776,0,0,0,.105.332c.023.036.165.032.227,0,.253-.14.5-.293.742-.45.558-.36,1.1-.74,1.672-1.082A7.666,7.666,0,0,1-22.841-6.8a3.744,3.744,0,0,1,2.069.249,2.38,2.38,0,0,1,1.428,1.915,7.6,7.6,0,0,1,.082.937" transform="translate(38.262 7.391)" fill="#0033a0"/>
    </g>
    <g id="Group_18" data-name="Group 18" transform="translate(168.464 6.273)">
      <path id="Path_18" data-name="Path 18" d="M-13.526-7.3c.456,0,.912.009,1.368,0a5.692,5.692,0,0,1,1.584.292,1.432,1.432,0,0,1,.735.445.284.284,0,0,1-.088.421,1.35,1.35,0,0,1-.342.14c-1.764.24-3.5.654-5.274.826a3.98,3.98,0,0,0-.607.125.818.818,0,0,0-.62.552c-.188.552-.375,1.106-.6,1.644-.512,1.23-1.051,2.45-1.572,3.677-.488,1.151-.984,2.3-1.445,3.459a15.985,15.985,0,0,0-.986,3.353,4.046,4.046,0,0,0-.08.619,2.454,2.454,0,0,0,.08.615.9.9,0,0,0,.811.671,3.22,3.22,0,0,0,1.346-.172,12.442,12.442,0,0,0,1.5-.589c.819-.4,1.616-.844,2.425-1.266.292-.153.589-.3.888-.44.129-.061.336.09.364.248a3.469,3.469,0,0,1-.1,1.609,7.033,7.033,0,0,1-1.017,2.132,8.432,8.432,0,0,1-4.634,3.387,6.536,6.536,0,0,1-4.153-.139,4.528,4.528,0,0,1-2.926-4.127,6.357,6.357,0,0,1,.685-3.143c.469-.929.958-1.849,1.461-2.761,1.268-2.3,2.4-4.667,3.484-7.057a3.389,3.389,0,0,0,.4-1.176.4.4,0,0,0-.34-.439c-.33-.007-.661,0-.992,0-.662-.015-1.326-.01-1.985-.064a3.306,3.306,0,0,1-1.829-.706,1.667,1.667,0,0,1-.313-.379.5.5,0,0,1,.114-.568.848.848,0,0,1,.2-.137,4.682,4.682,0,0,1,.95-.28c.865-.087,1.715-.28,2.59-.315.908-.036,1.814-.161,2.72-.255a.663.663,0,0,0,.506-.328c.189-.323.352-.661.515-1,.688-1.426,1.365-2.857,2.063-4.278a15.393,15.393,0,0,1,.8-1.41,1.542,1.542,0,0,1,.453-.413.556.556,0,0,1,.788.349,5.271,5.271,0,0,1-.037,1.744,35.244,35.244,0,0,1-.827,3.655c-.083.28-.152.564-.218.848-.094.406.076.619.523.63.538.013,1.077,0,1.616,0Z" transform="translate(26.867 14.594)" fill="#0033a0"/>
    </g>
    <g id="Group_19" data-name="Group 19" transform="translate(49.733 16.101)">
      <path id="Path_19" data-name="Path 19" d="M-.952-10.912c.582,0,.872.012,1.161,0A.724.724,0,0,0,.9-11.524c.172-.643.321-1.293.515-1.93a14.232,14.232,0,0,1,2.617-4.792,10.322,10.322,0,0,1,2.947-2.463,8.947,8.947,0,0,1,2.443-.883c.282-.067.571-.1.855-.161a4.2,4.2,0,0,1,2.767.456,3.03,3.03,0,0,1,1.669,2.609A6.228,6.228,0,0,1,14.3-15.87a10.307,10.307,0,0,1-2.12,3.355,11.388,11.388,0,0,1-5.363,3.24,13.043,13.043,0,0,1-3.178.516c-.165,0-.329.026-.494.047a.318.318,0,0,0-.161.492,2.133,2.133,0,0,0,.241.284,2.593,2.593,0,0,0,1.089.577,6.028,6.028,0,0,0,2.215.2c.7-.084,1.395-.183,2.087-.31.894-.165,1.782-.367,2.674-.543a4.868,4.868,0,0,1,.617-.059,1.107,1.107,0,0,1,.247.014.9.9,0,0,1,.757,1.286,1.534,1.534,0,0,1-.234.438A7.888,7.888,0,0,1,7.239-2.942c-.411.046-.819.133-1.23.165A9.3,9.3,0,0,1,3.3-3.053,3.069,3.069,0,0,1,.932-5.217,10.724,10.724,0,0,1,.484-7.8c-.024-.332-.018-.667-.036-1a.455.455,0,0,0-.255-.4c-.371-.181-.754-.342-1.124-.526a2.129,2.129,0,0,1-.885-.662c-.044-.065-.094-.177-.068-.229.05-.1.145-.233.236-.246a6.273,6.273,0,0,1,.7-.053m3.531-.811c.008.158.013.2.012.241a.421.421,0,0,0,.5.421,4.422,4.422,0,0,0,.715-.193A13.292,13.292,0,0,0,5.79-12.282a7.7,7.7,0,0,0,3.168-3.745A6.5,6.5,0,0,0,9.3-17.1a1.448,1.448,0,0,0-.289-1.18,1.167,1.167,0,0,0-1.229-.393,4.083,4.083,0,0,0-1.706.994,13.158,13.158,0,0,0-3.13,4.617,10.294,10.294,0,0,0-.365,1.335" transform="translate(1.891 21.825)" fill="#0033a0"/>
    </g>
    <g id="Group_20" data-name="Group 20" transform="translate(201.59 17)">
      <path id="Path_20" data-name="Path 20" d="M-6.951-18.552c-.4-.029-.853-.045-1.3-.1a3.57,3.57,0,0,1-2.528-1.424,5.359,5.359,0,0,1-1.035-2.514c-.064-.453-.077-.913-.107-1.372-.019-.291-.013-.584-.047-.873a.589.589,0,0,0-.444-.541c-.279-.077-.559-.152-.835-.235a3.144,3.144,0,0,1-.346-.137.457.457,0,0,1-.2-.427.515.515,0,0,1,.186-.3,2.63,2.63,0,0,1,.7-.25c.283-.054.577-.047.865-.077a.659.659,0,0,0,.558-.438c.111-.269.2-.547.294-.822a25.425,25.425,0,0,1,1.728-3.874A10.527,10.527,0,0,1-5.85-35.811a11.354,11.354,0,0,1,1.082-.61,6.271,6.271,0,0,1,3.869-.6,3.729,3.729,0,0,1,3.126,2.69,4.992,4.992,0,0,1-.181,3.305,7.976,7.976,0,0,1-2.7,3.666,11.032,11.032,0,0,1-3.874,1.926,11.981,11.981,0,0,1-3.548.535c-.289-.007-.579.008-.869.02-.5.019-.724.293-.451.864A2.627,2.627,0,0,0-8.26-22.9a7.238,7.238,0,0,0,3.083.869,11.114,11.114,0,0,0,3.081-.3,5.958,5.958,0,0,1,.729-.141,1.9,1.9,0,0,1,.611.063.656.656,0,0,1,.367,1,3.193,3.193,0,0,1-.412.466,9.467,9.467,0,0,1-3.631,2.1,10.062,10.062,0,0,1-2.519.281M-4.169-33.7a6.538,6.538,0,0,0-.707.188,4.048,4.048,0,0,0-1.35.864,11.031,11.031,0,0,0-2.642,3.577,10.757,10.757,0,0,0-.451,1.289c-.1.338.12.571.47.511a3.568,3.568,0,0,0,.6-.144A9.407,9.407,0,0,0-3.672-31.07a5.737,5.737,0,0,0,.455-.883,2.041,2.041,0,0,0,.144-.977.837.837,0,0,0-.718-.743c-.082-.009-.164-.013-.378-.029" transform="translate(13.806 37.103)" fill="#0033a0"/>
    </g>
    <g id="Group_21" data-name="Group 21" transform="translate(105.217 16.334)">
      <path id="Path_21" data-name="Path 21" d="M-8.223-19.108a13.766,13.766,0,0,1-4.827-.737,4.719,4.719,0,0,1-1.535-.805,4.166,4.166,0,0,1-.693-.712,1.768,1.768,0,0,1-.29-1.765,4.259,4.259,0,0,1,.552-1.114,8.328,8.328,0,0,1,4.761-3.2.655.655,0,0,1,.245.01.165.165,0,0,1,.1.064c.02.031.034.1.016.119-.183.222-.368.444-.561.656a4.091,4.091,0,0,0-.888,1.632,1.4,1.4,0,0,0,.3,1.4A1.575,1.575,0,0,0-9.8-23.08a1.983,1.983,0,0,0,.368-.055,5.377,5.377,0,0,0,3.308-2.06,3.412,3.412,0,0,0,.678-2.595,13.637,13.637,0,0,0-.479-2.2c-.128-.44-.261-.88-.35-1.33a9.171,9.171,0,0,1-.243-2.359,2.313,2.313,0,0,0-.03-.373A.4.4,0,0,0-7-34.374a1.553,1.553,0,0,0-.578.192,5.329,5.329,0,0,0-.84.734c-.308.336-.573.713-.854,1.075-.485.625-.953,1.264-1.456,1.873a8.946,8.946,0,0,1-2.681,2.2,3.645,3.645,0,0,1-2.275.462c-.353-.049-.615-.236-.647-.487a.669.669,0,0,1,.314-.637c.2-.149.412-.278.623-.411.352-.221.708-.435,1.058-.657A10.046,10.046,0,0,0-11.2-33.2c.289-.458.565-.925.87-1.371q.528-.773,1.1-1.516a6.567,6.567,0,0,1,1.906-1.587,4.528,4.528,0,0,1,1.4-.507,1.629,1.629,0,0,1,1.09.135.684.684,0,0,1,.424.571c.023.291.029.583.025.875A16.468,16.468,0,0,0-2.8-29.328c.37.792.788,1.562,1.178,2.345.353.708.717,1.412,1.04,2.134A5.947,5.947,0,0,1-.2-23.663a1.884,1.884,0,0,1-.488,1.734,6.8,6.8,0,0,1-1.742,1.4,10.886,10.886,0,0,1-3.14,1.154,8.291,8.291,0,0,1-2.65.27" transform="translate(16.334 38.217)" fill="#0033a0"/>
    </g>
    <g id="Group_22" data-name="Group 22" transform="translate(129.975 18.056)">
      <path id="Path_22" data-name="Path 22" d="M-14.7-6.156A9.521,9.521,0,0,1-16.187-1.07a13.213,13.213,0,0,1-5.8,5.124,9.406,9.406,0,0,1-2.376.7A4.635,4.635,0,0,1-26.8,4.47a2.186,2.186,0,0,1-.907-.642A5.528,5.528,0,0,1-29.124-.789,12.256,12.256,0,0,1-28.1-4.123a21.211,21.211,0,0,1,1.44-2.626,12.98,12.98,0,0,1,6.55-5.132,6.49,6.49,0,0,1,2.8-.412,1.635,1.635,0,0,1,.482.1.838.838,0,0,1,.565.613.9.9,0,0,1-.4.853,3.257,3.257,0,0,1-.691.265c-.442.108-.89.19-1.338.272a7.98,7.98,0,0,0-4.585,2.8,3.9,3.9,0,0,0-.948,2.139,3.267,3.267,0,0,0,.153,1.48,1.78,1.78,0,0,0,1.663,1.285,2.669,2.669,0,0,0,1.851-.582,4.91,4.91,0,0,0,1.688-2.419c.153-.474.23-.971.35-1.456a5.152,5.152,0,0,1,.271-.956,1.815,1.815,0,0,1,1.69-1.081A1.665,1.665,0,0,1-15.09-8.2,2.144,2.144,0,0,1-14.7-7.032c0,.292,0,.584,0,.876" transform="translate(29.192 12.312)" fill="#0033a0"/>
    </g>
    <g id="Group_23" data-name="Group 23" transform="translate(18.954 17.588)">
      <path id="Path_23" data-name="Path 23" d="M-9.988-1.033c-.038.254-.075.627-.15.993-.176.857-.379,1.708-.549,2.566a2.181,2.181,0,0,0,.021.613c.012.135.294.243.408.162A2.5,2.5,0,0,0-9.871,3c.281-.306.543-.629.817-.942A13.555,13.555,0,0,1-6.981.08,7.1,7.1,0,0,1-2.189-1.3a4.848,4.848,0,0,1,1.2.285,1.281,1.281,0,0,1,.669.536A1.125,1.125,0,0,1-.112.353,9.7,9.7,0,0,1-1.2,3.527a3.643,3.643,0,0,1-.461.583.652.652,0,0,1-.7.115,6.861,6.861,0,0,1-.634-.389c-.375-.26-.737-.539-1.112-.8a2.987,2.987,0,0,0-2.125-.516,3.015,3.015,0,0,0-.716.183A3.546,3.546,0,0,0-8.709,4.219a10.193,10.193,0,0,0-.773,1.563c-.365.93-.678,1.879-1.017,2.82-.325.9-.647,1.8-.986,2.7a14.34,14.34,0,0,1-1.035,2.132,3.744,3.744,0,0,1-3.013,1.935,5.851,5.851,0,0,1-3.037-.427,3.915,3.915,0,0,1-.747-.442,1.28,1.28,0,0,1-.347-1.674,2.972,2.972,0,0,1,.524-.69,10.426,10.426,0,0,1,1.15-.952,7.3,7.3,0,0,0,2.275-2.606,23.764,23.764,0,0,0,1.882-4.483A26.079,26.079,0,0,1-12.6.688a10.782,10.782,0,0,1,1.017-1.859,5.918,5.918,0,0,1,.663-.738.506.506,0,0,1,.576-.111.552.552,0,0,1,.329.493c.007.125.016.25.031.5" transform="translate(19.839 2.067)" fill="#0033a0"/>
    </g>
    <g id="Group_24" data-name="Group 24" transform="translate(37.04 18.54)">
      <path id="Path_24" data-name="Path 24" d="M-8.543,0A10.742,10.742,0,0,1-6.257.29a.764.764,0,0,1,.578.843,4.09,4.09,0,0,1-.41,1.306c-.276.513-.557,1.024-.857,1.524-.94,1.572-1.9,3.135-2.834,4.708-.3.5-.57,1.017-.838,1.535a6.571,6.571,0,0,0-.343.8.685.685,0,0,0,.767.953,5.186,5.186,0,0,0,1.555-.407,14.234,14.234,0,0,0,2.4-1.3,1.046,1.046,0,0,1,.572-.212c.143,0,.333.2.287.338a1.573,1.573,0,0,1-.136.345,10.209,10.209,0,0,1-.644.918A17.018,17.018,0,0,1-13.7,16.5a5.005,5.005,0,0,1-1.722.148,1.569,1.569,0,0,1-1.416-1.213,5.411,5.411,0,0,1-.123-1.492,12.644,12.644,0,0,1,.423-2.84,37.964,37.964,0,0,1,3.053-7.775,10.2,10.2,0,0,1,.863-1.372,7.155,7.155,0,0,1,1.012-1.1,3.256,3.256,0,0,1,2.27-.862c.207.005.414,0,.8,0" transform="translate(16.969 0.009)" fill="#0033a0"/>
    </g>
    <g id="Group_25" data-name="Group 25" transform="translate(231.388 4.546)">
      <path id="Path_25" data-name="Path 25" d="M-8.305-1.229c1.16,0,2.32,0,3.48,0A12.24,12.24,0,0,0-2.846-1.39c.733-.124,1.478-.162,2.217-.278,1.431-.223,2.86-.45,4.273-.772a.539.539,0,0,1,.246-.007.417.417,0,0,1,.177.127.117.117,0,0,1-.013.112,2.487,2.487,0,0,1-.355.34C2.708-1.181,1.731-.477.717.171-1.311,1.468-3.39,2.681-5.5,3.838a22.062,22.062,0,0,1-3.743,1.67,9.627,9.627,0,0,1-3.924.41A4.32,4.32,0,0,1-14.6,5.529a3.04,3.04,0,0,1-1.9-2.837A3.426,3.426,0,0,1-15.568.185a5.263,5.263,0,0,1,1.143-.958,2.826,2.826,0,0,1,1.4-.465c.5-.016.994-.036,1.491-.03,1.077.013,2.154.043,3.231.066v-.026" transform="translate(16.497 2.458)" fill="#0033a0"/>
    </g>
    <g id="Group_26" data-name="Group 26" transform="translate(259.843 5.471)">
      <path id="Path_26" data-name="Path 26" d="M-5.976-7.436a6.54,6.54,0,0,1-2-.236,4.945,4.945,0,0,1-2.694-1.9,6.67,6.67,0,0,1-1.2-3.626c-.042-.706.388-1.022,1.027-.77.423.168.832.372,1.239.577a5.838,5.838,0,0,0,3.129.61,5.748,5.748,0,0,0,1.682-.41c.577-.228,1.135-.507,1.7-.754s1.14-.5,1.72-.719a3.624,3.624,0,0,1,1.837-.16,1.311,1.311,0,0,1,1.141,1.4,4.249,4.249,0,0,1-.42,1.559,7.055,7.055,0,0,1-3.705,3.7,7.709,7.709,0,0,1-3.463.729" transform="translate(11.87 14.871)" fill="#0033a0"/>
    </g>
    <g id="Group_27" data-name="Group 27" transform="translate(44.5 9.199)">
      <path id="Path_27" data-name="Path 27" d="M0-3.614c.019-.357.032-.9.082-1.431A2.627,2.627,0,0,1,.269-5.76,2.347,2.347,0,0,1,3.11-7.145a.821.821,0,0,1,.559.453,2.152,2.152,0,0,1,.237.7,6.7,6.7,0,0,1-.261,2.826A2.86,2.86,0,0,1,2.769-1.84,5.527,5.527,0,0,1,1.2-.858a.693.693,0,0,1-.926-.37,1.888,1.888,0,0,1-.169-.589C.06-2.353.041-2.893,0-3.614" transform="translate(0 7.228)" fill="#0033a0"/>
    </g>
    <g id="Group_28" data-name="Group 28" transform="translate(449.149 0)">
      <path id="Path_28" data-name="Path 28" d="M-6.956-35.848c-.827-.049-1.655-.086-2.479-.153a5.2,5.2,0,0,1-1.893-.574A3.783,3.783,0,0,1-13.3-38.883a9.662,9.662,0,0,1-.483-2.573c-.037-1-.054-2.006,0-3a9.92,9.92,0,0,1,.779-3.4,5.4,5.4,0,0,1,1.509-2.114,3.045,3.045,0,0,1,.535-.309.362.362,0,0,1,.407.205c.036.2.068.407.089.612a13.23,13.23,0,0,0,.493,2.574,5.483,5.483,0,0,0,4.737,4.036c.246.038.491.082.738.108A5.814,5.814,0,0,0,.216-44.231,8.187,8.187,0,0,0,2.6-48.261a9.041,9.041,0,0,0,.286-2.1A26.918,26.918,0,0,0,2.535-54.6c-.131-1.033-.3-2.062-.457-3.091a3.475,3.475,0,0,0-.177-.594.324.324,0,0,0-.422-.127,4.818,4.818,0,0,0-.4.287c-.287.24-.563.493-.849.733a17.524,17.524,0,0,1-3.742,2.45,12.009,12.009,0,0,1-1.979.722,3.347,3.347,0,0,1-2.189-.148,11.283,11.283,0,0,1-2.293-1.242,1.376,1.376,0,0,1-.247-.277.365.365,0,0,1,.048-.454,2.466,2.466,0,0,1,.536-.3c.591-.191,1.188-.361,1.786-.53a29.052,29.052,0,0,0,4.207-1.512A24.061,24.061,0,0,0,.516-61.157c.134-.1.256-.212.381-.321a.849.849,0,0,0,.32-.886c-.074-.325-.133-.653-.188-.983-.062-.369-.119-.739-.165-1.111-.041-.332-.046-.668-.1-1a11.682,11.682,0,0,1,.1-3.737,2.789,2.789,0,0,1,2.6-2.459,3.691,3.691,0,0,1,3.945,2.005,4.669,4.669,0,0,1,.581,1.9,5.459,5.459,0,0,1-.692,3.37c-.345.569-.7,1.131-1.061,1.691-.112.175-.248.334-.373.5a.9.9,0,0,0-.124.833c.094.319.205.635.321.947.452,1.211.975,2.392,1.544,3.551.5,1.009,1,2.014,1.471,3.036a16.42,16.42,0,0,1,1.186,3.547,7.341,7.341,0,0,1-.517,4.638,10.724,10.724,0,0,1-1.447,2.328A19.025,19.025,0,0,1-2.282-36.5a21.863,21.863,0,0,1-4.674.65M3.614-67.666a8.734,8.734,0,0,0,.469,2.626,2.145,2.145,0,0,0,.253.42.39.39,0,0,0,.448.088.985.985,0,0,0,.2-.147,4.372,4.372,0,0,0,.982-2.5,1.705,1.705,0,0,0-1.033-1.686.855.855,0,0,0-1.187.539,4.6,4.6,0,0,0-.128.656" transform="translate(13.817 71.696)" fill="#0033a0"/>
    </g>
    <g id="Group_29" data-name="Group 29" transform="translate(313.098 0.581)">
      <path id="Path_29" data-name="Path 29" d="M-18.639-3.6a25.122,25.122,0,0,1-.718,4.7c-.3,1.385-.629,2.762-1.018,4.125-.091.32-.159.647-.23.973a1.365,1.365,0,0,0-.043.371c.034.518.406.854.948.607a2.312,2.312,0,0,0,.609-.426c.665-.627,1.333-1.253,1.968-1.911C-14.7,2.324-12.3-.217-9.767-2.629c.722-.688,1.459-1.362,2.215-2.013.471-.406.983-.765,1.489-1.129a4.978,4.978,0,0,1,1.337-.654A1.179,1.179,0,0,1-3.379-5.6a3.117,3.117,0,0,1-.213,1.955A7.161,7.161,0,0,1-4.885-1.819,26.091,26.091,0,0,1-7.528.645a36.884,36.884,0,0,0-7.912,8.766A28.755,28.755,0,0,0-18.4,15.319a22.577,22.577,0,0,0-1.02,4.376,2.546,2.546,0,0,0,.139,1.232.893.893,0,0,0,1.08.615,2.3,2.3,0,0,0,.794-.329c.505-.361.981-.766,1.458-1.166.318-.266.614-.56.931-.827a1.092,1.092,0,0,1,.334-.146.383.383,0,0,1,.389.24,2.038,2.038,0,0,1-.133,1.225c-.186.463-.38.926-.6,1.372-.917,1.825-1.9,3.613-2.933,5.375a19.3,19.3,0,0,1-1.92,2.614,7.893,7.893,0,0,1-2.327,1.854,5.249,5.249,0,0,1-1.514.542A2.262,2.262,0,0,1-26.25,31.13a5.119,5.119,0,0,1-.58-2.281,10.188,10.188,0,0,1,.378-2.968,22.426,22.426,0,0,1,2.225-5.42c.879-1.609,1.713-3.241,2.465-4.914.341-.759.64-1.538.922-2.321a12.012,12.012,0,0,0,.35-1.327,2.237,2.237,0,0,0-.185-1.463,1.146,1.146,0,0,0-.311-.38.648.648,0,0,0-.7-.086,1.558,1.558,0,0,0-.725.662A5.119,5.119,0,0,0-23,12.006a24.035,24.035,0,0,1-3.29,7.25q-1.087,1.676-2.278,3.284a18.862,18.862,0,0,1-3.974,3.938,8.5,8.5,0,0,1-1.7,1.031,3.8,3.8,0,0,1-1.8.391,1.256,1.256,0,0,1-.775-.354.624.624,0,0,1-.2-.567,1.776,1.776,0,0,1,.1-.359,5.5,5.5,0,0,1,1.056-1.685q.691-.8,1.392-1.6A69.037,69.037,0,0,0-26.7,12.482a30.367,30.367,0,0,0,3.03-7.244c.554-2.012.938-4.059,1.292-6.113.184-1.068.333-2.142.524-3.209a6.649,6.649,0,0,1,.866-2.33,1.7,1.7,0,0,1,.817-.74.516.516,0,0,1,.477.021,1.8,1.8,0,0,1,.472.391A2.085,2.085,0,0,1-18.771-5.6q.067,1,.133,2" transform="translate(37.022 7.201)" fill="#0033a0"/>
    </g>
    <g id="Group_30" data-name="Group 30" transform="translate(470.813 18.01)">
      <path id="Path_30" data-name="Path 30" d="M-24.856-6.29a6.091,6.091,0,0,1-.443,2.2A14.852,14.852,0,0,1-28.032.5c-.488.568-1,1.115-1.536,1.639a9.416,9.416,0,0,1-3.662,2.3,4.939,4.939,0,0,1-2.331.175,2.522,2.522,0,0,1-1.3-.683,4.318,4.318,0,0,1-1.009-1.415c-.158-.339-.3-.687-.459-1.025-.03-.063-.127-.1-.2-.136-.1-.051-.22.016-.294.157s-.159.293-.224.446c-.13.307-.249.618-.374.928A67.546,67.546,0,0,1-44.54,13.031q-.787,1.275-1.657,2.5a15,15,0,0,1-1.131,1.33,2.775,2.775,0,0,1-1.025.693.655.655,0,0,1-.844-.32,1.3,1.3,0,0,1-.155-.467,4.35,4.35,0,0,1,.083-1.368,31.319,31.319,0,0,1,1.25-4.06A114.076,114.076,0,0,1-41.99-2.254c.391-.735.732-1.5,1.093-2.248a2.425,2.425,0,0,0,.246-.963.819.819,0,0,0-.851-.873,1.842,1.842,0,0,0-.491.055,10.289,10.289,0,0,0-1.975.742c-.454.2-.918.379-1.382.555a.324.324,0,0,1-.391-.353,2.55,2.55,0,0,1,.243-.7,8.064,8.064,0,0,1,.881-1.208,22,22,0,0,1,7.036-5.062A2.577,2.577,0,0,1-36.5-12.58a.81.81,0,0,1,.781.517,4.032,4.032,0,0,1,.276,2.206A5.479,5.479,0,0,0-35.6-8.368c.007.1.2.213.285.162A2.939,2.939,0,0,0-35-8.4c.292-.234.571-.485.866-.714a14.35,14.35,0,0,1,2.848-1.775,5.3,5.3,0,0,1,2.42-.455,3.246,3.246,0,0,1,1.947.728,5.917,5.917,0,0,1,1.745,2.247,4.8,4.8,0,0,1,.314,2.084M-35.65-1.073A2.736,2.736,0,0,0-35.244.365a1.216,1.216,0,0,0,1.515.5,4.053,4.053,0,0,0,1.251-.8A9.811,9.811,0,0,0-30.121-3.12a7.718,7.718,0,0,0,.51-1.666,2.847,2.847,0,0,0-.152-1.595,1.15,1.15,0,0,0-1.519-.691,3.9,3.9,0,0,0-.975.537,8.78,8.78,0,0,0-3.163,4.372c-.1.355-.155.726-.231,1.089" transform="translate(49.372 12.58)" fill="#0033a0"/>
    </g>
    <g id="Group_31" data-name="Group 31" transform="translate(539.196 18.074)">
      <path id="Path_31" data-name="Path 31" d="M-16.106-17.337c-.348.017-.679.013-1.006.053-.368.044-.733.119-1.1.2a.609.609,0,0,0-.5.5,8.366,8.366,0,0,0-.185.981A47.268,47.268,0,0,1-19.7-10.42,12.654,12.654,0,0,1-20.4-8.027a8.461,8.461,0,0,1-5.8,5.038,6.63,6.63,0,0,1-2.462.209,3.785,3.785,0,0,1-2.549-1.148,2.719,2.719,0,0,1-.775-1.916,6.926,6.926,0,0,1,1.043-3.68,16.936,16.936,0,0,1,4.815-5.163,21.055,21.055,0,0,1,3.586-1.989c.455-.2.906-.418,1.376-.574a1.624,1.624,0,0,0,1.127-1.215c.119-.441.29-.868.432-1.3.062-.187.011-.454-.084-.457a.768.768,0,0,0-.349.061,3.392,3.392,0,0,0-.414.276c-.274.188-.546.378-.823.562a18.024,18.024,0,0,1-3.63,1.9c-.425.16-.868.27-1.3.419a6.025,6.025,0,0,1-2.337.2,2.67,2.67,0,0,1-.6-.128,1.376,1.376,0,0,1-1.033-1.273,7.9,7.9,0,0,1,.066-2.12,24.028,24.028,0,0,1,1.965-5.915,23.536,23.536,0,0,1,1.965-3.476,15.517,15.517,0,0,1,2.168-2.571c.3-.284.618-.556.942-.815a7.174,7.174,0,0,1,5.112-1.553,5.083,5.083,0,0,1,2.35.735,2.885,2.885,0,0,1,1.383,2.255,1.749,1.749,0,0,1,.01.25,10.842,10.842,0,0,1-1.1,4.832,5.771,5.771,0,0,1-1.457,1.85,2.068,2.068,0,0,1-1,.476c-.751.12-1.308-.249-1.224-1.121a4.26,4.26,0,0,1,.131-.61c.152-.606.3-1.214.464-1.816a4.907,4.907,0,0,0,.138-1.489,1.929,1.929,0,0,0-.982-1.642,2.384,2.384,0,0,0-1.91-.287,4.866,4.866,0,0,0-2.714,1.872,6.453,6.453,0,0,0-.646,1.065,4.2,4.2,0,0,0-.118,3.4,2.285,2.285,0,0,0,1.576,1.475,4.781,4.781,0,0,0,1.343.232,12.569,12.569,0,0,0,2.231-.125,7.047,7.047,0,0,1,1.111-.089.7.7,0,0,1,.675.748,3.085,3.085,0,0,1-.087.615c-.257.969-.4,1.959-.561,2.945a7.159,7.159,0,0,0-.051.872.459.459,0,0,0,.3.361c.284.054.569.1.854.15.326.052.654.09.978.153.056.011.093.119.158.21M-26.76-8.722c.028.207.045.456.1.7a1,1,0,0,0,1.23.762,2.627,2.627,0,0,0,.911-.375A4.538,4.538,0,0,0-23-9.246,10.648,10.648,0,0,0-22.4-10.48a27.106,27.106,0,0,0,1.51-5,3.253,3.253,0,0,0,.031-.369c.01-.15-.191-.339-.326-.3a4.726,4.726,0,0,0-.585.194A8.118,8.118,0,0,0-24.3-13.972a9.623,9.623,0,0,0-2.26,4.1,11.487,11.487,0,0,0-.2,1.148" transform="translate(31.992 34.674)" fill="#0033a0"/>
    </g>
    <g id="Group_32" data-name="Group 32" transform="translate(420.02 6.769)">
      <path id="Path_32" data-name="Path 32" d="M-2.495-24.9c.065-.61.142-1.312.209-2.017.007-.074-.031-.2-.079-.222a.566.566,0,0,0-.345-.013,1.221,1.221,0,0,0-.3.215c-.3.225-.59.458-.894.674a.918.918,0,0,1-.592.141.485.485,0,0,1-.435-.375,1.154,1.154,0,0,1,.14-.844,16.571,16.571,0,0,1,1.028-1.409q1.168-1.381,2.389-2.717a4.649,4.649,0,0,0,1.027-1.69c.2-.593.426-1.175.642-1.761a40.161,40.161,0,0,1,3.94-7.924A22.349,22.349,0,0,1,8.577-47.79,10.06,10.06,0,0,1,10.852-49.3a4.952,4.952,0,0,1,2.657-.468A3.4,3.4,0,0,1,15.8-48.653a3.018,3.018,0,0,1,.753,1.812,4.791,4.791,0,0,1-.126,1.488,10.706,10.706,0,0,1-1.171,2.884,25.12,25.12,0,0,1-4.612,5.863,53.122,53.122,0,0,1-7.5,5.756q-.629.4-1.244.826a1.342,1.342,0,0,0-.525.818,3.526,3.526,0,0,0-.015,2.091,1.591,1.591,0,0,0,1.321,1.162,7.043,7.043,0,0,0,2.59-.139A24.36,24.36,0,0,0,9.3-27.351c.656-.256,1.317-.5,1.973-.754a2,2,0,0,1,.973-.131.272.272,0,0,1,.227.363,4.626,4.626,0,0,1-.368.648,16.657,16.657,0,0,1-4.551,4.207A12.385,12.385,0,0,1,2.912-21.33a12.707,12.707,0,0,1-2.1.215,5.057,5.057,0,0,1-1.463-.248,2.478,2.478,0,0,1-1.776-2.188c-.061-.41-.047-.832-.072-1.346M11.513-44.154c0-.208,0-.291,0-.373a.657.657,0,0,0-.7-.567,3.024,3.024,0,0,0-1.149.441,9.511,9.511,0,0,0-1.84,1.474A24.224,24.224,0,0,0,2.812-35.8a4.722,4.722,0,0,0-.177.464.584.584,0,0,0-.024.246.356.356,0,0,0,.092.215.255.255,0,0,0,.221.044,1.706,1.706,0,0,0,.417-.262c.529-.465,1.056-.935,1.571-1.416,1.243-1.16,2.488-2.318,3.715-3.5a14.388,14.388,0,0,0,1.937-2.271,12.893,12.893,0,0,0,.754-1.287,3.074,3.074,0,0,0,.194-.588" transform="translate(4.955 49.793)" fill="#0033a0"/>
    </g>
    <g id="Group_33" data-name="Group 33" transform="translate(400.329 18.319)">
      <path id="Path_33" data-name="Path 33" d="M0-13.482a10.306,10.306,0,0,1,.445-2.988,19.68,19.68,0,0,1,1.97-4.444,15.009,15.009,0,0,1,3.742-4.144,9.157,9.157,0,0,1,4.551-1.855,5.61,5.61,0,0,1,3.7.757c.355.215.694.458,1.056.659a.754.754,0,0,0,.827-.039c.341-.236.668-.493,1-.737a3.2,3.2,0,0,1,1.361-.582,1.4,1.4,0,0,1,.488.028.585.585,0,0,1,.448.531,2.724,2.724,0,0,1-.17,1.1A11.685,11.685,0,0,1,18.4-23.056c-.571.92-1.166,1.824-1.754,2.733-.362.56-.737,1.11-1.1,1.672a4.211,4.211,0,0,0-.531,1.126.833.833,0,0,0,.653,1.129c.366.061.741.069,1.11.116a.893.893,0,0,1,.341.128.462.462,0,0,1,.131.2.2.2,0,0,1,0,.121,1.4,1.4,0,0,1-.066.24,11.868,11.868,0,0,1-3.834,5.138,6.421,6.421,0,0,1-1.74.951,1.873,1.873,0,0,1-2.6-1.521c-.069-.367-.073-.747-.126-1.118a1.609,1.609,0,0,0-.15-.465.224.224,0,0,0-.2-.085A2.486,2.486,0,0,0,8-12.4a17.656,17.656,0,0,1-2.176,1.448,9.857,9.857,0,0,1-1.467.67,3.382,3.382,0,0,1-2.546-.1A2.8,2.8,0,0,1,.047-12.765c-.033-.289-.039-.583-.047-.717m7.989-1.934c.06-.005.307-.017.552-.055a.622.622,0,0,0,.471-.366A2.714,2.714,0,0,0,9.2-16.3a9.714,9.714,0,0,1,1.148-2.486c.456-.744.964-1.457,1.456-2.177.281-.412.6-.8.861-1.224a6.326,6.326,0,0,0,.491-1.005.755.755,0,0,0-.183-.81,1.227,1.227,0,0,0-.388-.3,2.092,2.092,0,0,0-1.331-.15,5.058,5.058,0,0,0-1.7.724A8.463,8.463,0,0,0,6-19.066a6.171,6.171,0,0,0-.28,1.343,1.888,1.888,0,0,0,1.959,2.307h.312" transform="translate(0 26.965)" fill="#0033a0"/>
    </g>
    <g id="Group_34" data-name="Group 34" transform="translate(522.882 17.787)">
      <path id="Path_34" data-name="Path 34" d="M-18.037-5.438A18.331,18.331,0,0,1-18.6-1.483,25.651,25.651,0,0,1-20.327,3.46a12.151,12.151,0,0,1-1.212,2.035,5.916,5.916,0,0,1-1.519,1.462A2.252,2.252,0,0,1-24.6,7.3a1.04,1.04,0,0,1-.857-.793,4.326,4.326,0,0,1,.115-2.1c.224-.757.5-1.5.792-2.235.368-.929.788-1.836,1.159-2.764.279-.695.52-1.4.772-2.11a3.711,3.711,0,0,0,.158-1.605,1.075,1.075,0,0,0-.993-.949,2.077,2.077,0,0,0-1.515.433,6.519,6.519,0,0,0-.643.589A11.158,11.158,0,0,0-27.6-1.382c-.426.857-.8,1.739-1.224,2.6s-.844,1.719-1.313,2.552a8.2,8.2,0,0,1-2.023,2.351,5.157,5.157,0,0,1-2.083,1.07,1.22,1.22,0,0,1-1.471-.825A1.959,1.959,0,0,1-35.8,5.38,10.5,10.5,0,0,1-35.048,3,39.617,39.617,0,0,1-32.464-1.84q.692-1.114,1.4-2.218a6.684,6.684,0,0,0,.778-1.7,3.754,3.754,0,0,0,.117-.859.577.577,0,0,0-.577-.536,3.99,3.99,0,0,0-1.195.312,21.362,21.362,0,0,0-2.571,1.247c-.326.18-.654.357-.989.52a.245.245,0,0,1-.219-.043.267.267,0,0,1-.069-.216,1.132,1.132,0,0,1,.139-.347c.17-.285.338-.574.533-.842a13.337,13.337,0,0,1,3.843-3.506,5.3,5.3,0,0,1,1.717-.7,1.431,1.431,0,0,1,1.688.929A3.672,3.672,0,0,1-27.6-8.458c-.008.375.009.75.032,1.124,0,.057.093.141.156.155a.249.249,0,0,0,.21-.07c.157-.192.3-.4.44-.6a7.777,7.777,0,0,1,3.492-2.714,4.337,4.337,0,0,1,1.822-.309,3.06,3.06,0,0,1,2.729,1.665,4.541,4.541,0,0,1,.58,1.9c.049.623.07,1.249.1,1.873" transform="translate(35.828 10.875)" fill="#0033a0"/>
    </g>
    <g id="Group_35" data-name="Group 35" transform="translate(350.16 17.811)">
      <path id="Path_35" data-name="Path 35" d="M-18.339-4.166A10.226,10.226,0,0,1-18.772-1a32.466,32.466,0,0,1-3.146,7.055,10.125,10.125,0,0,1-1.6,2.069,5.688,5.688,0,0,1-1.294.962,1.96,1.96,0,0,1-1.08.219,1.385,1.385,0,0,1-1.269-1.659A5.866,5.866,0,0,1-26.587,6c.364-.654.719-1.316,1.114-1.95C-24.9,3.13-24.29,2.236-23.7,1.327a9.769,9.769,0,0,0,1.018-2,3.234,3.234,0,0,0,.168-1.353,1.617,1.617,0,0,0-.723-1.255,2.361,2.361,0,0,0-2.132-.327,3.8,3.8,0,0,0-1.566.981A8.421,8.421,0,0,0-28.073-1.14a19.893,19.893,0,0,0-1.541,2.995c-.271.654-.513,1.319-.776,1.976-.232.58-.442,1.171-.719,1.729a15.576,15.576,0,0,1-1,1.725A6.866,6.866,0,0,1-33,8.318,2.631,2.631,0,0,1-35.15,9.1a1.162,1.162,0,0,1-1.069-.715A2.343,2.343,0,0,1-36.346,6.8a7.09,7.09,0,0,1,.813-2.087c.437-.707.874-1.418,1.362-2.09.708-.977,1.466-1.916,2.192-2.88.325-.431.641-.871.931-1.327a2.441,2.441,0,0,0,.4-1.044A2.492,2.492,0,0,0-30.617-3a1.285,1.285,0,0,0-1.56-1.345,4.613,4.613,0,0,0-2.282.915c-.229.177-.458.355-.69.527-.127.094-.315.1-.326.022a.7.7,0,0,1,.015-.349,7.484,7.484,0,0,1,1-1.579,10.839,10.839,0,0,1,2.5-2.418,6.561,6.561,0,0,1,2.385-1.017,2.849,2.849,0,0,1,1.592.058,1.8,1.8,0,0,1,1.166,1.2A3.835,3.835,0,0,1-26.66-5.88a1.581,1.581,0,0,0,.1.478.22.22,0,0,0,.2.095,1.553,1.553,0,0,0,.424-.235c.579-.471,1.138-.97,1.728-1.426a5.445,5.445,0,0,1,2.376-1.026A2.634,2.634,0,0,1-19.1-6.93a3.466,3.466,0,0,1,.652,1.6c.071.451.083.913.1,1.162" transform="translate(36.426 8.332)" fill="#0033a0"/>
    </g>
    <g id="Group_36" data-name="Group 36" transform="translate(368.742 17.611)">
      <path id="Path_36" data-name="Path 36" d="M-11.955,0A11.1,11.1,0,0,1-9.7.405,3.106,3.106,0,0,1-8.089,1.714a3.708,3.708,0,0,1,.256,3.693A7.2,7.2,0,0,1-9,7.168a11.472,11.472,0,0,1-3.406,2.681,13.17,13.17,0,0,1-5.459,1.525c-.455.02-.911.029-1.366.055a3.4,3.4,0,0,0-.486.087.343.343,0,0,0-.221.39,2.449,2.449,0,0,0,.235.436,2.4,2.4,0,0,0,.861.7,5.37,5.37,0,0,0,3.005.57,5.68,5.68,0,0,0,3.424-1.6c.422-.4.834-.812,1.25-1.219a3.1,3.1,0,0,1,.9-.66,2.8,2.8,0,0,1,.349-.126.716.716,0,0,1,.733.35A2.2,2.2,0,0,1-8.973,11.7a6.309,6.309,0,0,1-1.874,3.722,9.457,9.457,0,0,1-3.613,2.133,9.562,9.562,0,0,1-2.308.469,4.006,4.006,0,0,1-3.8-1.673,7.64,7.64,0,0,1-1.389-3.571c-.06-.454-.128-.907-.2-1.36a.525.525,0,0,0-.292-.382c-.255-.137-.521-.253-.773-.4a2.144,2.144,0,0,1-.39-.3.508.508,0,0,1,.179-.821c.361-.086.73-.137,1.093-.212a.478.478,0,0,0,.366-.3,6.492,6.492,0,0,0,.229-.715,9.834,9.834,0,0,1,1.667-3.467,13.376,13.376,0,0,1,3.717-3.464A8.891,8.891,0,0,1-12.389.022c.124-.012.248-.013.433-.022M-12.99,4.268a1.424,1.424,0,0,0-1.2-1.539,1.956,1.956,0,0,0-1.314.246,5.413,5.413,0,0,0-1.005.722,13.871,13.871,0,0,0-3.225,4.685,2.233,2.233,0,0,0-.085.362.379.379,0,0,0,.264.37,1.4,1.4,0,0,0,.245.011A9.228,9.228,0,0,0-13.817,6a3.024,3.024,0,0,0,.649-1.054c.09-.272.146-.556.177-.673" transform="translate(23.747)" fill="#0033a0"/>
    </g>
    <g id="Group_37" data-name="Group 37" transform="translate(294.163 13.109)">
      <path id="Path_37" data-name="Path 37" d="M-4.668-21.937c-.378-.029-.794-.037-1.2-.094a3.594,3.594,0,0,1-3.157-2.62,5.726,5.726,0,0,1-.223-1.1A3.609,3.609,0,0,1-8.842-27.8a7.206,7.206,0,0,1,.966-1.452,10.066,10.066,0,0,1,5.82-3.352,10.431,10.431,0,0,1,1.732-.082.953.953,0,0,1,.242.052c.189.045.332.357.217.5-.2.26-.416.515-.639.759a5.651,5.651,0,0,0-1.022,1.407,1.838,1.838,0,0,0-.174.848A1.3,1.3,0,0,0-.655-27.888a3.6,3.6,0,0,0,1.84-.135c.663-.233,1.307-.52,1.959-.785a2.313,2.313,0,0,0,.224-.108,49.412,49.412,0,0,0,14.81-11.619c.776-.923,1.513-1.88,2.278-2.812a3.571,3.571,0,0,1,.542-.5.238.238,0,0,1,.225.008.242.242,0,0,1,.081.212,5.06,5.06,0,0,1-.33.8c-.345.618-.7,1.233-1.077,1.83a40.744,40.744,0,0,1-4.842,6.182A77.406,77.406,0,0,1,4.943-25.952a32.143,32.143,0,0,1-4,2.515,13.689,13.689,0,0,1-2.989,1.2,10.648,10.648,0,0,1-2.618.3" transform="translate(9.272 43.874)" fill="#0033a0"/>
    </g>
    <g id="Group_38" data-name="Group 38" transform="translate(556.784 17.547)">
      <path id="Path_38" data-name="Path 38" d="M-9.046-19.218a11.341,11.341,0,0,1-5.259-1.28A5.1,5.1,0,0,1-15.9-21.674a2.639,2.639,0,0,1-.7-2.189,3.24,3.24,0,0,1,.7-1.582,4.239,4.239,0,0,1,1.442-1.165,8.145,8.145,0,0,1,2.36-.74.422.422,0,0,1,.227.073c.077.04.064.208-.023.336-.21.31-.441.607-.625.932a3.361,3.361,0,0,0-.328.8,1.34,1.34,0,0,0,.416,1.363,1.9,1.9,0,0,0,.744.435A3.74,3.74,0,0,0-9.366-23.5a3.95,3.95,0,0,0,1.309-.7A2.89,2.89,0,0,0-6.9-26.45a8.219,8.219,0,0,0-.213-2.231c-.2-.808-.463-1.6-.609-2.422a13.916,13.916,0,0,1-.215-2.111c-.006-.25-.012-.5-.038-.749a.487.487,0,0,0-.237-.413.4.4,0,0,0-.453.088c-.387.375-.786.742-1.143,1.145-.439.5-.831,1.04-1.262,1.546-.485.569-.977,1.134-1.491,1.676a7.74,7.74,0,0,1-3.523,2.017,3.122,3.122,0,0,1-1.594.05.419.419,0,0,1-.231-.6,3.7,3.7,0,0,1,.527-.519,26.24,26.24,0,0,0,3.484-3.2c.811-.89,1.572-1.828,2.339-2.758A21.6,21.6,0,0,1-9.827-36.9a7.487,7.487,0,0,1,1.81-1.305,2.118,2.118,0,0,1,1.328-.2.984.984,0,0,1,.878.771A8.172,8.172,0,0,1-5.619-36.4a40.56,40.56,0,0,0,.675,4.825,41.187,41.187,0,0,0,1.551,5.787c.161.472.279.959.425,1.437a3.111,3.111,0,0,1-.344,2.525,4.188,4.188,0,0,1-1.468,1.5,6.878,6.878,0,0,1-3.273,1.065c-.331.02-.662.03-.993.045" transform="translate(17.968 38.436)" fill="#0033a0"/>
    </g>
    <g id="Group_39" data-name="Group 39" transform="translate(383.967 16.788)">
      <path id="Path_39" data-name="Path 39" d="M-9.448-1.3c-.02.115-.074.486-.154.851-.161.733-.34,1.462-.5,2.194a1.51,1.51,0,0,0,.029.864.482.482,0,0,0,.613.27,3.667,3.667,0,0,0,.627-.394c.412-.35.8-.73,1.2-1.087C-6.981.822-6.33.239-5.659-.318A4.135,4.135,0,0,1-3.764-1.21a2.416,2.416,0,0,1,.986-.008c.2.045.406.086.608.13A3.3,3.3,0,0,1-.163.285,1.567,1.567,0,0,1,.044,1.931a10.931,10.931,0,0,1-.9,1.78.735.735,0,0,1-.863.329c-.279-.076-.549-.182-.822-.28-.468-.167-.928-.361-1.4-.5-.515-.154-1.042-.266-1.567-.385a2.466,2.466,0,0,0-.494-.049,1.958,1.958,0,0,0-1.71.851A5.074,5.074,0,0,0-8.423,5.13C-8.7,6-8.941,6.888-9.209,7.765c-.316,1.036-.622,2.076-.975,3.1a13.173,13.173,0,0,1-.713,1.6,5.711,5.711,0,0,1-2.964,2.728,9.577,9.577,0,0,1-1.907.555,3.885,3.885,0,0,1-2.07-.261,1.452,1.452,0,0,1-.322-.187,1.352,1.352,0,0,1-.446-1.768A4,4,0,0,1-18.278,13c.172-.235.356-.462.543-.686a23.264,23.264,0,0,0,4.7-9.558c.266-1.092.5-2.2.676-3.306A2.456,2.456,0,0,1-11.03-2.4a1.625,1.625,0,0,1,.958-.186.659.659,0,0,1,.623.656c.006.125,0,.251,0,.634" transform="translate(18.767 2.594)" fill="#0033a0"/>
    </g>
    <g id="Group_40" data-name="Group 40" transform="translate(493.206 18.508)">
      <path id="Path_40" data-name="Path 40" d="M-19.288-2.162a2.314,2.314,0,0,1-.267,1.206c-.175.331-.324.678-.52,1a4.664,4.664,0,0,1-.6.79,1.376,1.376,0,0,1-1.808.282c-.185-.092-.363-.2-.541-.307-.214-.128-.422-.264-.635-.394a2.834,2.834,0,0,0-3.269.121,4.089,4.089,0,0,0-1.574,1.89,12.9,12.9,0,0,0-.5,1.543c-.193.724-.339,1.462-.526,2.187a12.468,12.468,0,0,1-2.228,4.575,7.688,7.688,0,0,1-2.133,1.892,5.838,5.838,0,0,1-2.487.71,2.327,2.327,0,0,1-1.419-.38,1.013,1.013,0,0,1-.513-.939,1.591,1.591,0,0,1,.205-.84,8.273,8.273,0,0,1,.622-.932,13.051,13.051,0,0,0,1.642-2.648c.253-.525.5-1.054.727-1.591,1.008-2.379,2-4.763,3.012-7.142.227-.536.482-1.062.739-1.584a3.47,3.47,0,0,1,.733-1,1.16,1.16,0,0,1,.533-.3c.71-.167,1.182.242,1.035.94-.12.57-.287,1.13-.445,1.692-.135.481-.3.954-.422,1.439a2.021,2.021,0,0,0,.006.616c.011.147.3.26.4.16A3.6,3.6,0,0,0-29.11.359c.334-.477.646-.97.976-1.451A8.291,8.291,0,0,1-25.7-3.383a5.836,5.836,0,0,1,3.671-.923,4.756,4.756,0,0,1,1.664.469,1.786,1.786,0,0,1,.218.121,1.637,1.637,0,0,1,.857,1.554" transform="translate(38.311 4.324)" fill="#0033a0"/>
    </g>
    <g id="Group_41" data-name="Group 41" transform="translate(336.951 18.538)">
      <path id="Path_41" data-name="Path 41" d="M-8.118-.009a8.366,8.366,0,0,1,2.6.289.593.593,0,0,1,.419.779,5.216,5.216,0,0,1-.351.8c-.409.724-.839,1.436-1.254,2.158C-7.616,5.6-8.534,7.181-9.434,8.775c-.265.47-.474.972-.71,1.458a2.282,2.282,0,0,0-.211.968.732.732,0,0,0,.642.792,3.315,3.315,0,0,0,1.354-.076,18.317,18.317,0,0,0,2.588-.861c.61-.254,1.234-.472,1.857-.693a.245.245,0,0,1,.21.087.253.253,0,0,1,.022.226,4.166,4.166,0,0,1-.481.721c-.423.457-.859.9-1.321,1.32A37,37,0,0,1-9.121,15.54a9.57,9.57,0,0,1-4.025,1.54,4.069,4.069,0,0,1-2.085-.14,1.234,1.234,0,0,1-.86-1.113,5.487,5.487,0,0,1,.054-1.619,27.254,27.254,0,0,1,.65-2.795,63.841,63.841,0,0,1,2.744-7.364c.308-.681.672-1.338,1.033-1.993a5.047,5.047,0,0,1,.9-1.189A2.789,2.789,0,0,1-8.716-.009h.6" transform="translate(16.125 0.018)" fill="#0033a0"/>
    </g>
    <g id="Group_42" data-name="Group 42" transform="translate(510.238 18.973)">
      <path id="Path_42" data-name="Path 42" d="M0-13.937a14.78,14.78,0,0,1,.507-2.957A36.46,36.46,0,0,1,2.2-21.723c.368-.883.739-1.767,1.144-2.635.263-.564.576-1.106.893-1.643a4.187,4.187,0,0,1,.982-1.12,3.062,3.062,0,0,1,1.572-.687,6.991,6.991,0,0,1,1.981.007,1.737,1.737,0,0,1,.477.119.977.977,0,0,1,.635,1.31,4.152,4.152,0,0,1-.4.911c-.3.548-.619,1.084-.93,1.625-.809,1.406-1.624,2.81-2.425,4.222a7.462,7.462,0,0,0-.815,2.087,2.19,2.19,0,0,0,0,.991.9.9,0,0,0,1.1.749,3.976,3.976,0,0,0,.94-.307c.781-.383,1.546-.8,2.315-1.2.219-.116.427-.255.649-.365a.26.26,0,0,1,.224.029.3.3,0,0,1,.1.21.916.916,0,0,1-.066.36,4.965,4.965,0,0,1-.8,1.258,15.138,15.138,0,0,1-4.739,3.78,9.948,9.948,0,0,1-2.223.778,2.719,2.719,0,0,1-1.7-.122,1.516,1.516,0,0,1-.973-1.2c-.076-.45-.093-.91-.136-1.366" transform="translate(0 27.874)" fill="#0033a0"/>
    </g>
    <g id="Group_43" data-name="Group 43" transform="translate(345.159 9.046)">
      <path id="Path_43" data-name="Path 43" d="M0-5.142A11.09,11.09,0,0,1,.548-8.123a3.475,3.475,0,0,1,1.1-1.623,2.248,2.248,0,0,1,1.6-.534,1.81,1.81,0,0,1,.815.262,1.157,1.157,0,0,1,.535.656,3.688,3.688,0,0,1,.171,1.6c-.056.537-.116,1.074-.211,1.6a4.032,4.032,0,0,1-.658,1.6A2.458,2.458,0,0,1,1.72-3.386a7.153,7.153,0,0,1-.739-.05,1.116,1.116,0,0,1-.916-.894C.02-4.616.017-4.908,0-5.142" transform="translate(0 10.284)" fill="#0033a0"/>
    </g>
    <g id="Group_44" data-name="Group 44" transform="translate(516.596 9.26)">
      <path id="Path_44" data-name="Path 44" d="M-.016-2.719a9.782,9.782,0,0,1,.008-1,3.356,3.356,0,0,1,.2-.842,1.276,1.276,0,0,1,1.117-.855,2.787,2.787,0,0,1,1.683.265A1.947,1.947,0,0,1,4.018-3.677a6.588,6.588,0,0,1-.012,2.111A3.11,3.11,0,0,1,2.918.336,1.6,1.6,0,0,1,1.534.711,1.538,1.538,0,0,1,.976.474a2.058,2.058,0,0,1-.763-1.1,5.33,5.33,0,0,1-.229-2.09" transform="translate(0.032 5.437)" fill="#0033a0"/>
    </g>
  </g>
</svg>
